<svg width="37" height="39" viewBox="0 0 37 39" fill="none" xmlns="http://www.w3.org/2000/svg">
<path d="M15.2949 13.162C15.8269 12.0163 16.0717 10.6667 16.0717 8.98821C16.0717 7.3097 15.8269 5.9601 15.2949 4.81437C14.1495 2.27827 11.6124 0.845764 7.89032 0.845764H1.22302V17.0899H7.93113C11.6124 17.0899 14.1087 15.6574 15.2949 13.162ZM4.741 14.1855V3.75155H7.31759C9.64931 3.75155 11.0804 4.52896 11.7362 6.04301C12.1048 6.82042 12.2681 7.72015 12.2681 8.94879C12.2681 10.2168 12.1048 11.1179 11.7362 11.8546C11.0818 13.3279 9.69148 14.146 7.31759 14.146H4.741V14.1855Z" fill="black"/>
<path d="M11.4899 34.1114C10.7539 34.7257 9.77169 35.094 8.5038 35.094C6.66319 35.094 5.35449 34.3574 4.65797 32.9249C4.24849 32.0659 4.12605 31.0018 4.12605 29.5693C4.12605 28.096 4.2893 27.0739 4.65797 26.2136C5.31231 24.8219 6.5802 24.0445 8.5038 24.0445C9.77169 24.0445 10.7131 24.372 11.4491 24.985C12.1034 25.5993 12.5129 26.4175 12.5537 27.4817H16.2757C16.1941 25.5993 15.4989 24.0037 14.1481 22.858C12.7986 21.6715 10.875 20.9756 8.58406 20.9756C4.90284 20.9756 2.3657 22.5304 1.13862 25.1494C0.608071 26.4188 0.322388 27.8513 0.322388 29.5285C0.322388 31.2478 0.567259 32.6789 1.1808 33.9062C2.40787 36.566 4.98582 38.08 8.66705 38.08C10.958 38.08 12.9618 37.4249 14.3127 36.1976C15.5398 35.1335 16.3165 33.5379 16.3587 31.6963H12.5945C12.5537 32.721 12.1442 33.5392 11.4899 34.1114Z" fill="black"/>
<path d="M35.4202 25.11C34.2339 22.5725 31.6981 21.0177 28.0155 21.0177C24.3329 21.0177 21.7972 22.5725 20.5701 25.1508C19.9974 26.4188 19.7117 27.9329 19.7117 29.5706C19.7117 31.2477 19.9974 32.7618 20.6123 33.9891C21.8393 36.5673 24.3343 38.0814 28.0169 38.0814C31.6995 38.0814 34.1944 36.5673 35.4215 33.9891C36.0351 32.7618 36.3221 31.207 36.3221 29.5285C36.3207 27.8513 36.0337 26.378 35.4202 25.11ZM31.9838 32.7618C31.3294 34.1535 30.1024 35.0125 28.0563 35.0125C26.0103 35.0125 24.7424 34.1535 24.0881 32.7618C23.6786 31.8621 23.5153 30.8794 23.5153 29.5298C23.5153 28.1789 23.6786 27.1976 24.0881 26.2979C24.7424 24.9061 26.0103 24.0472 28.0155 24.0472C30.0616 24.0472 31.3294 24.9061 31.9838 26.2979C32.4341 27.1976 32.5565 28.1802 32.5565 29.5298C32.5565 30.8794 32.3933 31.9028 31.9838 32.7618Z" fill="black"/>
<path fill-rule="evenodd" clip-rule="evenodd" d="M31.3838 1.28827H35.1492V15.6438H31.3838V7.70348L21.8238 17.2635L19.1613 14.601L28.7086 5.05367H20.7933V1.28827L31.3838 1.28827Z" fill="black"/>
</svg>
