<svg width="500" height="297" viewBox="0 0 500 297" fill="none" xmlns="http://www.w3.org/2000/svg">
<path d="M0 4.65129L68.997 4.65129C77.0599 4.65129 83.0451 8.50196 86.9526 16.2033C90.86 23.7784 92.8137 35.583 92.8137 51.6169L92.8137 90.25C92.8137 106.284 90.86 118.152 86.9526 125.853C83.0451 133.428 77.0599 137.216 68.997 137.216L0 137.216L0 113.165L14.7087 113.165L14.7087 28.5129L0 28.5129L0 4.65129ZM68.997 113.354C73.2766 113.354 76.2537 111.334 77.9283 107.294C79.6649 103.128 80.5332 96.6888 80.5332 87.9775L80.5332 51.6169C80.5332 44.0418 79.6649 38.2974 77.9283 34.3836C76.2537 30.4698 73.2766 28.5129 68.997 28.5129L63.7871 28.5129L63.7871 113.354H68.997Z" fill="black"/>
<path d="M105.681 4.65129L146.802 4.65129L146.802 28.5129L117.961 28.5129L117.961 58.8133L145.685 58.8133L145.685 82.6749L117.961 82.6749L117.961 113.354L147.918 113.354L147.918 137.216L105.681 137.216L105.681 4.65129Z" fill="black"/>
<path d="M194.65 45.1781C194.65 39.8755 193.626 35.2673 191.58 31.3535C189.595 27.4397 186.773 25.4828 183.113 25.4828C180.012 25.4828 177.562 26.8085 175.764 29.4598C173.965 31.9848 173.066 35.4567 173.066 39.8755C173.066 42.1481 173.283 44.2312 173.717 46.125C174.151 47.8925 174.895 49.5338 175.95 51.0488C177.066 52.4376 178.493 53.7001 180.229 54.8364C182.028 55.9726 184.292 57.0458 187.021 58.0558C193.843 60.5808 199.053 64.8103 202.651 70.7441C206.248 76.6779 208.047 85.4524 208.047 97.0676V99.3401C208.047 105.526 207.488 111.145 206.372 116.195C205.318 121.119 203.767 125.348 201.72 128.883C199.674 132.418 197.193 135.133 194.278 137.026C191.362 138.92 188.075 139.867 184.416 139.867C180.136 139.867 176.353 138.668 173.066 136.269C169.841 133.744 167.143 130.335 164.972 126.042C162.801 121.624 161.157 116.51 160.041 110.703C158.925 104.769 158.366 98.3301 158.366 91.3863V85.7049L170.647 85.7049V90.25C170.647 98.2038 171.763 104.58 173.996 109.377C176.291 114.048 179.826 116.384 184.602 116.384C188.323 116.384 191.083 114.743 192.882 111.46C194.681 108.178 195.58 104.264 195.58 99.7189C195.58 97.5726 195.394 95.5526 195.022 93.6588C194.65 91.6388 193.998 89.8712 193.068 88.3562C192.138 86.715 190.866 85.2631 189.254 84.0005C187.641 82.738 185.594 81.6649 183.113 80.7811C179.826 79.6448 176.818 78.193 174.089 76.4254C171.36 74.5316 168.972 72.0697 166.926 69.0397C164.941 66.0097 163.39 62.2221 162.274 57.677C161.157 53.132 160.599 47.5769 160.599 41.0118V39.8755C160.599 34.4467 161.126 29.4598 162.181 24.9147C163.297 20.2434 164.817 16.2033 166.739 12.7945C168.724 9.38574 171.081 6.73444 173.81 4.84066C176.601 2.94689 179.702 2 183.113 2C186.959 2 190.37 3.13626 193.347 5.4088C196.324 7.55508 198.805 10.522 200.79 14.3095C202.837 18.0971 204.356 22.4528 205.349 27.3766C206.403 32.3004 206.93 37.4768 206.93 42.9056L206.93 49.7232L194.65 49.7232V45.1781Z" fill="black"/>
<path d="M218.681 4.65129L262.221 4.65129L262.221 28.5129L246.591 28.5129L246.591 113.354L262.221 113.354L262.221 137.216L218.681 137.216L218.681 113.354L234.311 113.354L234.311 28.5129L218.681 28.5129L218.681 4.65129Z" fill="black"/>
<path d="M293.136 70.176L321.047 70.176L321.047 137.216H309.883V122.444H308.208C307.464 127.368 306.037 131.534 303.928 134.943C301.82 138.226 298.656 139.867 294.439 139.867C291.462 139.867 288.671 138.731 286.066 136.458C283.461 134.186 281.197 130.84 279.274 126.421C277.352 121.876 275.832 116.321 274.716 109.756C273.599 103.065 273.041 95.3001 273.041 86.4624L273.041 55.4045C273.041 46.8194 273.63 39.2443 274.809 32.6792C276.049 25.9878 277.724 20.3696 279.833 15.8246C282.003 11.2795 284.577 7.8707 287.554 5.59817C290.531 3.19939 293.819 2 297.416 2C301.137 2 304.456 3.26252 307.371 5.78756C310.286 8.18634 312.767 11.5951 314.813 16.0139C316.86 20.3065 318.411 25.4197 319.465 31.3535C320.519 37.1611 321.047 43.4106 321.047 50.1019L321.047 52.3745L308.766 52.3745L308.766 50.1019C308.766 42.1481 307.743 36.1511 305.696 32.111C303.711 27.9447 300.889 25.8616 297.23 25.8616C293.757 25.8616 290.904 28.2604 288.671 33.0579C286.438 37.7293 285.322 45.8094 285.322 57.2983L285.322 85.3262C285.322 105.779 289.415 116.005 297.602 116.005C301.261 116.005 304.021 114.048 305.882 110.135C307.805 106.095 308.766 100.729 308.766 94.0375L293.136 94.0375L293.136 70.176Z" fill="black"/>
<path d="M363.219 124.717H364.894L364.894 4.65129L377.175 4.65129L377.175 137.216L353.172 137.216L345.543 17.1502L343.868 17.1502L343.868 137.216L331.588 137.216L331.588 4.65129L355.591 4.65129L363.219 124.717Z" fill="black"/>
<path d="M0 159.704L60.6905 159.704L60.6905 183.565L40.4147 183.565L40.4147 213.866L60.3056 213.866L60.3056 237.727L40.4147 237.727L40.4147 292.268L0 292.268L0 159.704Z" fill="black"/>
<path d="M100.428 292.268H91.9581L91.9581 252.499C91.9581 249.469 91.68 247.007 91.1239 245.113C90.6106 243.219 89.7337 242.272 88.4932 242.272L78.7402 242.272L78.7402 292.268H70.2706L70.2706 159.704L87.4665 159.704C89.7764 159.704 91.8083 160.65 93.5621 162.544C95.3159 164.438 96.7703 167.089 97.9253 170.498C99.123 173.781 100.021 177.631 100.62 182.05C101.262 186.469 101.583 191.203 101.583 196.253V200.798C101.583 206.227 101.091 211.341 100.107 216.138C99.123 220.809 97.6045 224.408 95.5512 226.933L95.5512 230.341C97.0484 230.846 98.2247 232.551 99.0802 235.455C99.9785 238.358 100.428 242.02 100.428 246.439L100.428 292.268ZM78.7402 218.411H86.8249C88.8782 218.411 90.4395 217.022 91.5089 214.244C92.5783 211.341 93.113 207.3 93.113 202.124V199.852C93.113 195.433 92.5783 191.645 91.5089 188.489C90.4395 185.206 88.8782 183.565 86.8249 183.565H78.7402L78.7402 218.411Z" fill="black"/>
<path d="M107.954 211.214C107.954 194.044 109.409 180.724 112.318 171.256C115.269 161.787 119.333 157.052 124.509 157.052C129.685 157.052 133.727 161.787 136.636 171.256C139.587 180.724 141.063 194.044 141.063 211.214L141.063 240.757C141.063 258.432 139.587 271.878 136.636 281.095C133.727 290.311 129.685 294.919 124.509 294.919C119.333 294.919 115.269 290.311 112.318 281.095C109.409 271.878 107.954 258.432 107.954 240.757L107.954 211.214ZM124.509 272.194C126.049 272.194 127.332 271.499 128.359 270.111C129.385 268.596 130.219 266.513 130.861 263.861C131.503 261.21 131.952 258.054 132.208 254.392C132.465 250.731 132.593 246.691 132.593 242.272L132.593 209.699C132.593 205.533 132.444 201.619 132.144 197.958C131.845 194.297 131.374 191.14 130.733 188.489C130.091 185.838 129.257 183.754 128.23 182.239C127.204 180.598 125.963 179.778 124.509 179.778C123.054 179.778 121.814 180.598 120.787 182.239C119.761 183.754 118.926 185.838 118.285 188.489C117.643 191.14 117.173 194.297 116.873 197.958C116.574 201.619 116.424 205.533 116.424 209.699L116.424 242.272C116.424 246.691 116.552 250.731 116.809 254.392C117.066 258.054 117.515 261.21 118.156 263.861C118.798 266.513 119.632 268.596 120.659 270.111C121.686 271.499 122.969 272.194 124.509 272.194Z" fill="black"/>
<path d="M169.892 279.769H171.047L171.047 159.704L179.517 159.704L179.517 292.268L162.963 292.268L157.701 172.202L156.546 172.202L156.546 292.268H148.077L148.077 159.704L164.631 159.704L169.892 279.769Z" fill="black"/>
<path d="M186.915 159.704L219.254 159.704L219.254 183.565L207.32 183.565L207.32 292.268H198.85L198.85 183.565L186.915 183.565L186.915 159.704Z" fill="black"/>
<path d="M227.358 159.704L257.387 159.704L257.387 183.565L246.607 183.565L246.607 268.406H257.387L257.387 292.268L227.358 292.268L227.358 268.406H238.138L238.138 183.565H227.358L227.358 159.704Z" fill="black"/>
<path d="M267.288 159.704L295.648 159.704L295.648 183.565L275.757 183.565L275.757 213.866L294.878 213.866V237.727L275.757 237.727L275.757 268.406L296.418 268.406L296.418 292.268L267.288 292.268L267.288 159.704Z" fill="black"/>
<path d="M336.155 292.268H327.686L327.686 252.499C327.686 249.469 327.408 247.007 326.852 245.113C326.338 243.219 325.461 242.272 324.221 242.272L314.468 242.272L314.468 292.268L305.998 292.268L305.998 159.704L323.194 159.704C325.504 159.704 327.536 160.65 329.29 162.544C331.044 164.438 332.498 167.089 333.653 170.498C334.851 173.781 335.749 177.631 336.348 182.05C336.99 186.469 337.31 191.203 337.31 196.253V200.798C337.31 206.227 336.818 211.341 335.835 216.138C334.851 220.809 333.332 224.408 331.279 226.933V230.341C332.776 230.846 333.952 232.551 334.808 235.455C335.706 238.358 336.155 242.02 336.155 246.439L336.155 292.268ZM314.468 218.411L322.553 218.411C324.606 218.411 326.167 217.022 327.237 214.244C328.306 211.341 328.841 207.3 328.841 202.124V199.852C328.841 195.433 328.306 191.645 327.237 188.489C326.167 185.206 324.606 183.565 322.553 183.565L314.468 183.565L314.468 218.411Z" fill="black"/>
<path d="M367.936 200.23C367.936 194.928 367.23 190.32 365.819 186.406C364.45 182.492 362.504 180.535 359.98 180.535C357.841 180.535 356.151 181.861 354.911 184.512C353.67 187.037 353.05 190.509 353.05 194.928C353.05 197.2 353.2 199.283 353.499 201.177C353.799 202.945 354.312 204.586 355.039 206.101C355.809 207.49 356.793 208.752 357.991 209.889C359.231 211.025 360.793 212.098 362.675 213.108C367.38 215.633 370.973 219.863 373.454 225.796C375.935 231.73 377.176 240.505 377.176 252.12V254.392C377.176 260.579 376.791 266.197 376.021 271.247C375.294 276.171 374.224 280.4 372.813 283.935C371.401 287.47 369.69 290.185 367.68 292.079C365.669 293.972 363.402 294.919 360.878 294.919C357.927 294.919 355.317 293.72 353.05 291.321C350.826 288.796 348.965 285.387 347.468 281.095C345.971 276.676 344.837 271.563 344.067 265.755C343.297 259.821 342.912 253.382 342.912 246.439V240.757L351.382 240.757V245.302C351.382 253.256 352.152 259.632 353.692 264.429C355.275 269.101 357.713 271.436 361.007 271.436C363.573 271.436 365.477 269.795 366.717 266.513C367.958 263.23 368.578 259.316 368.578 254.771C368.578 252.625 368.45 250.605 368.193 248.711C367.936 246.691 367.487 244.923 366.845 243.408C366.204 241.767 365.327 240.315 364.215 239.053C363.103 237.79 361.691 236.717 359.98 235.833C357.713 234.697 355.638 233.245 353.756 231.478C351.874 229.584 350.227 227.122 348.815 224.092C347.447 221.062 346.377 217.274 345.607 212.729C344.837 208.184 344.452 202.629 344.452 196.064V194.928C344.452 189.499 344.816 184.512 345.543 179.967C346.313 175.296 347.361 171.256 348.687 167.847C350.056 164.438 351.681 161.787 353.563 159.893C355.488 157.999 357.627 157.052 359.98 157.052C362.632 157.052 364.985 158.189 367.038 160.461C369.091 162.607 370.802 165.574 372.171 169.362C373.583 173.149 374.631 177.505 375.315 182.429C376.042 187.353 376.406 192.529 376.406 197.958V204.775L367.936 204.775V200.23Z" fill="black"/>
<path d="M410.686 64.5018L392.069 64.5018L392.069 2.75303L412.459 2.75303C417.876 2.75303 422.506 3.42239 426.348 4.76112C430.189 6.18352 433.44 8.14977 436.099 10.6599C438.759 13.2537 440.926 16.3495 442.601 19.9473C444.374 23.5451 445.851 27.6031 447.033 32.1213C447.92 35.4682 448.905 38.1874 449.988 40.2792C451.17 42.4546 452.451 44.1699 453.83 45.4249C455.307 46.68 456.883 47.5167 458.558 47.935C460.331 48.4371 462.301 48.6881 464.468 48.6881C468.605 48.6881 472.053 47.3912 474.811 44.7974C477.569 42.2873 478.948 38.7731 478.948 34.2549C478.948 29.4857 477.224 25.6787 473.777 22.8339C470.428 19.9891 465.749 18.5667 459.74 18.5667L453.239 18.5667L453.239 2L461.513 2C466.34 2 470.92 2.7112 475.254 4.13359C479.687 5.63966 483.528 7.73142 486.779 10.4089C490.128 13.17 492.738 16.5168 494.61 20.4493C496.58 24.3818 497.565 28.8164 497.565 33.7529C497.565 39.0241 496.629 43.626 494.758 47.5585C492.985 51.491 490.621 54.7542 487.666 57.348C484.71 60.0254 481.263 61.9917 477.323 63.2467C473.481 64.5854 469.492 65.2548 465.355 65.2548L463.582 65.2548C454.913 65.2548 447.723 63.163 442.01 58.9795C436.296 54.8797 432.159 48.1442 429.598 38.7731C428.515 34.8406 427.382 31.5775 426.2 28.9837C425.116 26.4736 423.885 24.5073 422.506 23.0849C421.127 21.6625 419.6 20.6585 417.926 20.0728C416.35 19.5708 414.527 19.3198 412.459 19.3198L410.686 19.3198L410.686 64.5018Z" stroke="black" stroke-width="3"/>
<path d="M443.783 99.305C447.132 99.305 450.038 100.351 452.5 102.443C454.963 104.534 456.194 107.003 456.194 109.848C456.194 112.692 454.963 115.161 452.5 117.252C450.037 119.344 447.132 120.39 443.783 120.39C440.433 120.39 437.528 119.344 435.065 117.252C432.602 115.161 431.371 112.692 431.371 109.848C431.371 107.003 432.602 104.534 435.065 102.443C437.528 100.351 440.433 99.305 443.783 99.305ZM455.307 77.4671C468.704 77.4671 479.096 80.3119 486.484 86.0015C493.871 91.7747 497.565 99.7234 497.565 109.848C497.565 119.972 493.871 127.878 486.484 133.568C479.096 139.341 468.704 142.228 455.307 142.228L432.258 142.228C418.467 142.228 407.977 139.341 400.786 133.568C393.595 127.878 390 119.972 390 109.848C390 99.7234 393.595 91.7747 400.786 86.0015C407.977 80.3119 418.467 77.4671 432.258 77.4671L455.307 77.4671ZM407.731 109.848C407.731 112.86 408.272 115.37 409.356 117.378C410.538 119.386 412.163 121.018 414.232 122.273C416.3 123.528 418.763 124.406 421.619 124.908C424.476 125.41 427.628 125.661 431.076 125.661L456.489 125.661C459.74 125.661 462.794 125.368 465.65 124.783C468.507 124.197 470.969 123.277 473.038 122.022C475.106 120.766 476.732 119.135 477.914 117.127C479.194 115.119 479.835 112.692 479.835 109.848C479.835 107.003 479.194 104.576 477.914 102.568C476.732 100.56 475.106 98.9285 473.038 97.6735C470.969 96.4184 468.507 95.498 465.65 94.9124C462.794 94.3267 459.74 94.0338 456.489 94.0338L431.076 94.0338C427.628 94.0338 424.476 94.2848 421.619 94.7869C418.763 95.2889 416.3 96.1674 414.232 97.4225C412.163 98.6775 410.538 100.309 409.356 102.317C408.272 104.325 407.731 106.835 407.731 109.848Z" stroke="black" stroke-width="3"/>
<path d="M410.686 218.197L392.069 218.197L392.069 156.448L412.459 156.448C417.876 156.448 422.506 157.118 426.348 158.456C430.189 159.879 433.44 161.845 436.099 164.355C438.759 166.949 440.926 170.045 442.601 173.643C444.374 177.24 445.851 181.298 447.033 185.817C447.92 189.163 448.905 191.883 449.988 193.974C451.17 196.15 452.451 197.865 453.83 199.12C455.307 200.375 456.883 201.212 458.558 201.63C460.331 202.132 462.301 202.383 464.468 202.383C468.605 202.383 472.053 201.086 474.811 198.493C477.569 195.983 478.948 192.468 478.948 187.95C478.948 183.181 477.224 179.374 473.777 176.529C470.428 173.684 465.749 172.262 459.74 172.262L453.239 172.262L453.239 155.695L461.513 155.695C466.34 155.695 470.92 156.406 475.254 157.829C479.687 159.335 483.528 161.427 486.779 164.104C490.128 166.865 492.738 170.212 494.61 174.145C496.58 178.077 497.565 182.512 497.565 187.448C497.565 192.719 496.629 197.321 494.758 201.254C492.985 205.186 490.621 208.449 487.666 211.043C484.71 213.721 481.263 215.687 477.323 216.942C473.481 218.281 469.492 218.95 465.355 218.95L463.582 218.95C454.913 218.95 447.723 216.858 442.01 212.675C436.296 208.575 432.159 201.839 429.598 192.468C428.515 188.536 427.382 185.273 426.2 182.679C425.116 180.169 423.885 178.203 422.506 176.78C421.127 175.358 419.6 174.354 417.926 173.768C416.35 173.266 414.527 173.015 412.459 173.015L410.686 173.015L410.686 218.197Z" stroke="black" stroke-width="3"/>
<path d="M436.395 255.008L467.128 255.008L474.22 276.846L476.88 276.846L476.88 233.17L495.497 233.17L495.497 290.401L462.991 290.401L455.012 267.057L452.352 267.057L452.352 270.069C452.352 273.165 451.761 276.219 450.579 279.231C449.496 282.243 447.772 284.879 445.408 287.138C443.044 289.481 440.089 291.363 436.543 292.786C433.095 294.208 429.007 294.919 424.279 294.919L422.506 294.919C417.876 294.919 413.591 294.25 409.651 292.911C405.711 291.656 402.264 289.732 399.309 287.138C396.452 284.628 394.186 281.49 392.512 277.725C390.837 273.96 390 269.651 390 264.798C390 259.861 390.936 255.385 392.807 251.369C394.679 247.353 397.24 243.922 400.491 241.077C403.741 238.316 407.484 236.183 411.72 234.677C415.956 233.17 420.437 232.417 425.166 232.417L431.371 232.417L431.371 248.984L426.052 248.984C421.324 248.984 417.236 250.281 413.788 252.875C410.341 255.469 408.617 259.359 408.617 264.547C408.617 268.981 409.947 272.37 412.606 274.713C415.266 277.139 418.763 278.352 423.097 278.352C427.727 278.352 431.076 277.056 433.144 274.462C435.311 271.952 436.395 268.73 436.395 264.798L436.395 255.008Z" stroke="black" stroke-width="3"/>
</svg>
