<svg width="378" height="452" viewBox="0 0 378 452" fill="none" xmlns="http://www.w3.org/2000/svg">
<path d="M0 2.65135L68.997 2.65135C77.0599 2.65135 83.0451 6.50202 86.9526 14.2034C90.86 21.7785 92.8137 33.583 92.8137 49.617L92.8137 88.2501C92.8137 104.284 90.86 116.152 86.9526 123.853C83.0451 131.428 77.0599 135.216 68.997 135.216L0 135.216L0 111.165L14.7087 111.165L14.7087 26.5129L0 26.5129L0 2.65135ZM68.997 111.354C73.2766 111.354 76.2536 109.334 77.9283 105.294C79.6649 101.128 80.5332 94.6889 80.5332 85.9775L80.5332 49.617C80.5332 42.0419 79.6649 36.2974 77.9283 32.3836C76.2536 28.4698 73.2766 26.5129 68.997 26.5129L63.7871 26.5129L63.7871 111.354H68.997Z" fill="black"/>
<path d="M105.681 2.65135L146.802 2.65135L146.802 26.5129L117.961 26.5129L117.961 56.8134L145.685 56.8134L145.685 80.675L117.961 80.675L117.961 111.354L147.918 111.354L147.918 135.216L105.681 135.216L105.681 2.65135Z" fill="black"/>
<path d="M194.65 43.1782C194.65 37.8756 193.626 33.2674 191.58 29.3536C189.595 25.4398 186.773 23.4829 183.113 23.4829C180.012 23.4829 177.562 24.8085 175.764 27.4598C173.965 29.9849 173.066 33.4568 173.066 37.8756C173.066 40.1481 173.283 42.2313 173.717 44.1251C174.151 45.8926 174.895 47.5339 175.95 49.0489C177.066 50.4377 178.493 51.7002 180.229 52.8364C182.028 53.9727 184.292 55.0458 187.021 56.0559C193.843 58.5809 199.053 62.8103 202.651 68.7442C206.248 74.678 208.047 83.4525 208.047 95.0676V97.3402C208.047 103.527 207.488 109.145 206.372 114.195C205.318 119.119 203.767 123.348 201.72 126.883C199.674 130.418 197.193 133.133 194.278 135.026C191.362 136.92 188.075 137.867 184.416 137.867C180.136 137.867 176.353 136.668 173.066 134.269C169.841 131.744 167.143 128.335 164.972 124.042C162.801 119.624 161.157 114.51 160.041 108.703C158.925 102.769 158.366 96.3302 158.366 89.3863V83.705L170.647 83.705V88.2501C170.647 96.2039 171.763 102.58 173.996 107.377C176.291 112.049 179.826 114.384 184.602 114.384C188.323 114.384 191.083 112.743 192.882 109.46C194.681 106.178 195.58 102.264 195.58 97.7189C195.58 95.5727 195.394 93.5526 195.022 91.6589C194.65 89.6388 193.998 87.8713 193.068 86.3563C192.138 84.715 190.866 83.2631 189.254 82.0006C187.641 80.7381 185.594 79.6649 183.113 78.7812C179.826 77.6449 176.818 76.193 174.089 74.4255C171.36 72.5317 168.972 70.0698 166.926 67.0398C164.941 64.0097 163.39 60.2222 162.274 55.6771C161.157 51.132 160.599 45.577 160.599 39.0119V37.8756C160.599 32.4468 161.126 27.4598 162.181 22.9148C163.297 18.2434 164.817 14.2034 166.739 10.7946C168.724 7.3858 171.081 4.73451 173.81 2.84072C176.601 0.946948 179.702 6.10352e-05 183.113 6.10352e-05C186.959 6.10352e-05 190.37 1.13633 193.347 3.40886C196.324 5.55514 198.805 8.52206 200.79 12.3096C202.837 16.0972 204.356 20.4529 205.349 25.3767C206.403 30.3005 206.93 35.4768 206.93 40.9056L206.93 47.7232L194.65 47.7232V43.1782Z" fill="black"/>
<path d="M218.681 2.65135L262.221 2.65135L262.221 26.5129L246.591 26.5129L246.591 111.354L262.221 111.354L262.221 135.216L218.681 135.216L218.681 111.354L234.311 111.354L234.311 26.5129L218.681 26.5129L218.681 2.65135Z" fill="black"/>
<path d="M293.136 68.176L321.047 68.176L321.047 135.216H309.883V120.444H308.208C307.464 125.368 306.037 129.534 303.928 132.943C301.82 136.226 298.656 137.867 294.439 137.867C291.462 137.867 288.671 136.731 286.066 134.458C283.461 132.186 281.197 128.84 279.274 124.421C277.352 119.876 275.832 114.321 274.716 107.756C273.599 101.065 273.041 93.3001 273.041 84.4625L273.041 53.4046C273.041 44.8194 273.63 37.2443 274.809 30.6792C276.049 23.9879 277.724 18.3697 279.833 13.8246C282.003 9.27957 284.577 5.87076 287.554 3.59823C290.531 1.19945 293.819 6.10352e-05 297.416 6.10352e-05C301.137 6.10352e-05 304.456 1.26258 307.371 3.78762C310.286 6.1864 312.767 9.5952 314.813 14.014C316.86 18.3066 318.411 23.4198 319.465 29.3536C320.519 35.1612 321.047 41.4106 321.047 48.102L321.047 50.3745L308.766 50.3745L308.766 48.102C308.766 40.1481 307.743 34.1512 305.696 30.1111C303.711 25.9448 300.889 23.8617 297.23 23.8617C293.757 23.8617 290.904 26.2604 288.671 31.058C286.438 35.7293 285.322 43.8094 285.322 55.2983L285.322 83.3262C285.322 103.779 289.415 114.005 297.602 114.005C301.261 114.005 304.021 112.049 305.882 108.135C307.805 104.095 308.766 98.7289 308.766 92.0376L293.136 92.0376L293.136 68.176Z" fill="black"/>
<path d="M363.219 122.717H364.894L364.894 2.65135L377.175 2.65135L377.175 135.216L353.172 135.216L345.543 15.1503L343.868 15.1503L343.868 135.216L331.588 135.216L331.588 2.65135L355.591 2.65135L363.219 122.717Z" fill="black"/>
<path d="M0 157.704L60.6905 157.704L60.6905 181.565L40.4147 181.565L40.4147 211.866L60.3056 211.866L60.3056 235.727L40.4147 235.727L40.4147 290.268L0 290.268L0 157.704Z" fill="black"/>
<path d="M100.428 290.268H91.9581L91.9581 250.499C91.9581 247.469 91.68 245.007 91.1239 243.113C90.6106 241.219 89.7337 240.272 88.4932 240.272L78.7402 240.272L78.7402 290.268H70.2706L70.2706 157.704L87.4665 157.704C89.7764 157.704 91.8083 158.65 93.5621 160.544C95.3159 162.438 96.7703 165.089 97.9253 168.498C99.123 171.781 100.021 175.631 100.62 180.05C101.262 184.469 101.583 189.203 101.583 194.253V198.799C101.583 204.227 101.091 209.341 100.107 214.138C99.123 218.809 97.6045 222.408 95.5512 224.933L95.5512 228.341C97.0484 228.846 98.2247 230.551 99.0802 233.455C99.9785 236.358 100.428 240.02 100.428 244.439L100.428 290.268ZM78.7402 216.411H86.8249C88.8782 216.411 90.4395 215.022 91.5089 212.244C92.5783 209.341 93.113 205.301 93.113 200.124V197.852C93.113 193.433 92.5783 189.645 91.5089 186.489C90.4395 183.206 88.8782 181.565 86.8249 181.565H78.7402L78.7402 216.411Z" fill="black"/>
<path d="M107.954 209.214C107.954 192.044 109.409 178.725 112.318 169.256C115.269 159.787 119.333 155.052 124.509 155.052C129.685 155.052 133.727 159.787 136.636 169.256C139.587 178.725 141.063 192.044 141.063 209.214L141.063 238.757C141.063 256.432 139.587 269.878 136.636 279.095C133.727 288.311 129.685 292.919 124.509 292.919C119.333 292.919 115.269 288.311 112.318 279.095C109.409 269.878 107.954 256.432 107.954 238.757L107.954 209.214ZM124.509 270.194C126.049 270.194 127.332 269.5 128.359 268.111C129.385 266.596 130.219 264.513 130.861 261.861C131.503 259.21 131.952 256.054 132.208 252.392C132.465 248.731 132.593 244.691 132.593 240.272L132.593 207.699C132.593 203.533 132.444 199.619 132.144 195.958C131.845 192.297 131.374 189.14 130.733 186.489C130.091 183.838 129.257 181.755 128.23 180.24C127.204 178.598 125.963 177.778 124.509 177.778C123.054 177.778 121.814 178.598 120.787 180.24C119.761 181.755 118.926 183.838 118.285 186.489C117.643 189.14 117.173 192.297 116.873 195.958C116.574 199.619 116.424 203.533 116.424 207.699L116.424 240.272C116.424 244.691 116.552 248.731 116.809 252.392C117.066 256.054 117.515 259.21 118.156 261.861C118.798 264.513 119.632 266.596 120.659 268.111C121.686 269.5 122.969 270.194 124.509 270.194Z" fill="black"/>
<path d="M169.892 277.769H171.047L171.047 157.704L179.517 157.704L179.517 290.268L162.963 290.268L157.701 170.203L156.546 170.203L156.546 290.268H148.077L148.077 157.704L164.631 157.704L169.892 277.769Z" fill="black"/>
<path d="M186.915 157.704L219.254 157.704L219.254 181.565L207.32 181.565L207.32 290.268H198.85L198.85 181.565L186.915 181.565L186.915 157.704Z" fill="black"/>
<path d="M227.358 157.704L257.387 157.704L257.387 181.565L246.607 181.565L246.607 266.406H257.387L257.387 290.268L227.358 290.268L227.358 266.406H238.138L238.138 181.565H227.358L227.358 157.704Z" fill="black"/>
<path d="M267.288 157.704L295.648 157.704L295.648 181.565L275.757 181.565L275.757 211.866L294.878 211.866V235.727L275.757 235.727L275.757 266.406L296.418 266.406L296.418 290.268L267.288 290.268L267.288 157.704Z" fill="black"/>
<path d="M336.155 290.268H327.686L327.686 250.499C327.686 247.469 327.408 245.007 326.852 243.113C326.338 241.219 325.461 240.272 324.221 240.272L314.468 240.272L314.468 290.268L305.998 290.268L305.998 157.704L323.194 157.704C325.504 157.704 327.536 158.65 329.29 160.544C331.044 162.438 332.498 165.089 333.653 168.498C334.851 171.781 335.749 175.631 336.348 180.05C336.99 184.469 337.31 189.203 337.31 194.253V198.799C337.31 204.227 336.818 209.341 335.835 214.138C334.851 218.809 333.332 222.408 331.279 224.933V228.341C332.776 228.846 333.952 230.551 334.808 233.455C335.706 236.358 336.155 240.02 336.155 244.439L336.155 290.268ZM314.468 216.411L322.553 216.411C324.606 216.411 326.167 215.022 327.237 212.244C328.306 209.341 328.841 205.301 328.841 200.124V197.852C328.841 193.433 328.306 189.645 327.237 186.489C326.167 183.206 324.606 181.565 322.553 181.565L314.468 181.565L314.468 216.411Z" fill="black"/>
<path d="M367.936 198.23C367.936 192.928 367.23 188.32 365.819 184.406C364.45 180.492 362.504 178.535 359.98 178.535C357.841 178.535 356.151 179.861 354.911 182.512C353.67 185.037 353.05 188.509 353.05 192.928C353.05 195.2 353.2 197.284 353.499 199.177C353.799 200.945 354.312 202.586 355.039 204.101C355.809 205.49 356.793 206.752 357.991 207.889C359.231 209.025 360.793 210.098 362.675 211.108C367.38 213.633 370.973 217.863 373.454 223.796C375.935 229.73 377.176 238.505 377.176 250.12V252.392C377.176 258.579 376.791 264.197 376.021 269.247C375.294 274.171 374.224 278.4 372.813 281.935C371.401 285.47 369.69 288.185 367.68 290.079C365.669 291.972 363.402 292.919 360.878 292.919C357.927 292.919 355.317 291.72 353.05 289.321C350.826 286.796 348.965 283.387 347.468 279.095C345.971 274.676 344.837 269.563 344.067 263.755C343.297 257.821 342.912 251.382 342.912 244.439V238.757L351.382 238.757V243.302C351.382 251.256 352.152 257.632 353.692 262.429C355.275 267.101 357.713 269.436 361.007 269.436C363.573 269.436 365.477 267.795 366.717 264.513C367.958 261.23 368.578 257.316 368.578 252.771C368.578 250.625 368.45 248.605 368.193 246.711C367.936 244.691 367.487 242.924 366.845 241.409C366.204 239.767 365.327 238.315 364.215 237.053C363.103 235.79 361.691 234.717 359.98 233.833C357.713 232.697 355.638 231.245 353.756 229.478C351.874 227.584 350.227 225.122 348.815 222.092C347.447 219.062 346.377 215.274 345.607 210.729C344.837 206.184 344.452 200.629 344.452 194.064V192.928C344.452 187.499 344.816 182.512 345.543 177.967C346.313 173.296 347.361 169.256 348.687 165.847C350.056 162.438 351.681 159.787 353.563 157.893C355.488 155.999 357.627 155.052 359.98 155.052C362.632 155.052 364.985 156.189 367.038 158.461C369.091 160.607 370.802 163.574 372.171 167.362C373.583 171.149 374.631 175.505 375.315 180.429C376.042 185.353 376.406 190.529 376.406 195.958V202.775L367.936 202.775V198.23Z" fill="black"/>
<path d="M80.4798 424.798L80.4798 448.77L0.969637 448.77L0.969637 422.515C0.969637 415.539 1.83153 409.578 3.55533 404.631C5.38687 399.685 7.9187 395.499 11.1508 392.075C14.4907 388.65 18.477 385.86 23.1097 383.703C27.7424 381.42 32.9676 379.518 38.7855 377.996C43.095 376.854 46.5964 375.586 49.2899 374.191C52.091 372.669 54.2996 371.02 55.9157 369.244C57.5318 367.342 58.6091 365.312 59.1478 363.156C59.7942 360.873 60.1175 358.336 60.1175 355.546C60.1175 350.219 58.4475 345.779 55.1077 342.228C51.8755 338.677 47.3506 336.901 41.5328 336.901C35.3917 336.901 30.4897 339.12 26.8266 343.56C23.1635 347.872 21.332 353.897 21.332 361.634L21.332 370.005L0 370.005L0 359.351C0 353.136 0.915767 347.238 2.7473 341.657C4.68658 335.95 7.38001 331.003 10.8276 326.817C14.3829 322.505 18.6924 319.144 23.7561 316.734C28.8197 314.197 34.5298 312.929 40.8863 312.929C47.6738 312.929 53.5993 314.134 58.663 316.544C63.7267 318.827 67.9284 321.871 71.2683 325.676C74.7159 329.481 77.2477 333.92 78.8638 338.994C80.5876 343.94 81.4495 349.077 81.4495 354.404V356.687C81.4495 367.849 78.756 377.108 73.3691 384.464C68.09 391.821 59.4172 397.148 47.3506 400.446C42.2869 401.841 38.0852 403.3 34.7453 404.822C31.5132 406.217 28.9814 407.802 27.1498 409.578C25.3183 411.354 24.0254 413.32 23.2713 415.476C22.6248 417.505 22.3016 419.852 22.3016 422.515L22.3016 424.798L80.4798 424.798Z" fill="black"/>
<path d="M125.294 382.181C125.294 377.869 126.641 374.127 129.334 370.956C132.028 367.785 135.206 366.2 138.869 366.2C142.532 366.2 145.71 367.785 148.404 370.956C151.097 374.127 152.444 377.869 152.444 382.181C152.444 386.494 151.097 390.235 148.404 393.406C145.71 396.577 142.532 398.163 138.869 398.163C135.206 398.163 132.028 396.577 129.334 393.406C126.641 390.235 125.294 386.494 125.294 382.181ZM97.1745 367.342C97.1745 350.092 100.838 336.711 108.164 327.198C115.598 317.685 125.833 312.929 138.869 312.929C151.905 312.929 162.086 317.685 169.412 327.198C176.846 336.711 180.563 350.092 180.563 367.342L180.563 397.021C180.563 414.778 176.846 428.286 169.412 437.545C162.086 446.804 151.905 451.434 138.869 451.434C125.833 451.434 115.598 446.804 108.164 437.545C100.838 428.286 97.1745 414.778 97.1745 397.021L97.1745 367.342ZM138.869 428.603C142.747 428.603 145.98 427.906 148.565 426.511C151.151 424.989 153.252 422.896 154.868 420.232C156.484 417.569 157.615 414.398 158.262 410.72C158.908 407.041 159.231 402.983 159.231 398.543L159.231 365.819C159.231 361.634 158.854 357.702 158.1 354.024C157.346 350.345 156.161 347.175 154.545 344.511C152.929 341.847 150.828 339.755 148.242 338.233C145.656 336.584 142.532 335.759 138.869 335.759C135.206 335.759 132.081 336.584 129.496 338.233C126.91 339.755 124.809 341.847 123.193 344.511C121.577 347.175 120.392 350.345 119.638 354.024C118.884 357.702 118.506 361.634 118.506 365.819L118.506 398.543C118.506 402.983 118.83 407.041 119.476 410.72C120.123 414.398 121.254 417.569 122.87 420.232C124.486 422.896 126.587 424.989 129.172 426.511C131.758 427.906 134.99 428.603 138.869 428.603Z" fill="black"/>
<path d="M278.384 424.798L278.384 448.77L198.874 448.77L198.874 422.515C198.874 415.539 199.736 409.578 201.46 404.631C203.291 399.685 205.823 395.499 209.055 392.075C212.395 388.65 216.381 385.86 221.014 383.703C225.647 381.42 230.872 379.518 236.69 377.996C240.999 376.854 244.501 375.586 247.194 374.191C249.995 372.669 252.204 371.02 253.82 369.244C255.436 367.342 256.513 365.312 257.052 363.156C257.699 360.873 258.022 358.336 258.022 355.546C258.022 350.219 256.352 345.779 253.012 342.228C249.78 338.677 245.255 336.901 239.437 336.901C233.296 336.901 228.394 339.12 224.731 343.56C221.068 347.872 219.236 353.897 219.236 361.634V370.005L197.904 370.005V359.351C197.904 353.136 198.82 347.238 200.652 341.657C202.591 335.95 205.284 331.003 208.732 326.817C212.287 322.505 216.597 319.144 221.66 316.734C226.724 314.197 232.434 312.929 238.791 312.929C245.578 312.929 251.504 314.134 256.567 316.544C261.631 318.827 265.833 321.871 269.173 325.676C272.62 329.481 275.152 333.92 276.768 338.994C278.492 343.94 279.354 349.077 279.354 354.404V356.687C279.354 367.849 276.66 377.108 271.273 384.464C265.994 391.821 257.321 397.148 245.255 400.446C240.191 401.841 235.989 403.3 232.65 404.822C229.417 406.217 226.886 407.802 225.054 409.578C223.223 411.354 221.93 413.32 221.176 415.476C220.529 417.505 220.206 419.852 220.206 422.515V424.798L278.384 424.798Z" fill="black"/>
<path d="M325.784 391.694L325.784 352.121L353.903 342.989V339.564L297.664 339.564L297.664 315.592L371.357 315.592L371.357 357.448L341.298 367.722V371.147H345.177C349.163 371.147 353.095 371.908 356.974 373.43C360.852 374.825 364.246 377.045 367.155 380.089C370.172 383.133 372.596 386.938 374.427 391.504C376.259 395.943 377.175 401.207 377.175 407.295V409.578C377.175 415.539 376.313 421.057 374.589 426.13C372.973 431.204 370.495 435.643 367.155 439.448C363.923 443.126 359.883 446.043 355.035 448.2C350.186 450.356 344.638 451.434 338.389 451.434C332.033 451.434 326.269 450.229 321.097 447.819C315.926 445.409 311.509 442.111 307.846 437.926C304.29 433.74 301.543 428.921 299.604 423.467C297.664 418.013 296.695 412.242 296.695 406.153V398.163L318.027 398.163V405.012C318.027 411.1 319.697 416.364 323.037 420.803C326.376 425.242 331.386 427.462 338.066 427.462C343.776 427.462 348.139 425.75 351.156 422.325C354.28 418.9 355.843 414.398 355.843 408.817C355.843 402.856 354.173 398.543 350.833 395.88C347.601 393.089 343.453 391.694 338.389 391.694H325.784Z" fill="black"/>
</svg>
