<svg width="1323" height="367" viewBox="0 0 1323 367" fill="none" xmlns="http://www.w3.org/2000/svg">
<path d="M0.171875 89.5884H78.8332L124.637 206.772L171.035 89.5884H247.624L132.297 367H55.2223L86.7912 293.49L0.171875 89.5884Z" fill="black"/>
<path d="M327.41 84.9224C268.308 84.9224 230.945 137.928 230.945 190.712C230.945 250.111 271.909 297.203 326.289 297.203C366.854 297.203 382.149 272.488 382.149 272.488V291.741H450.757V89.5886H382.149V107.966C382.149 107.966 365.085 84.9224 327.41 84.9224ZM342.003 149.886C369.273 149.886 383.346 171.464 383.346 190.934C383.346 211.9 368.269 232.475 342.003 232.475C320.234 232.475 300.562 214.685 300.562 191.827C300.562 168.645 316.385 149.886 342.003 149.886Z" fill="black"/>
<path d="M474.385 291.738V0.324219H546.144V108.665C546.144 108.665 563.189 84.9461 598.887 84.9461C642.552 84.9461 668.136 117.481 668.136 163.971V291.738H596.901V181.473C596.901 165.74 589.407 150.541 572.431 150.541C555.15 150.541 546.144 165.97 546.144 181.473V291.738H474.385Z" fill="black"/>
<path d="M790.484 84.9424C722.802 84.9424 682.5 136.408 682.5 191.549C682.5 254.301 731.296 297.199 790.741 297.199C848.357 297.199 898.773 256.247 898.773 192.602C898.773 122.963 845.986 84.9424 790.484 84.9424ZM791.131 150.477C815.039 150.477 831.581 170.39 831.581 191.624C831.581 209.736 816.167 232.075 791.131 232.075C768.19 232.075 750.975 213.673 750.975 191.426C750.975 169.995 765.288 150.477 791.131 150.477Z" fill="black"/>
<path d="M1018.32 84.9424C950.638 84.9424 910.336 136.408 910.336 191.549C910.336 254.301 959.133 297.199 1018.58 297.199C1076.19 297.199 1126.61 256.247 1126.61 192.602C1126.61 122.963 1073.82 84.9424 1018.32 84.9424ZM1018.97 150.477C1042.87 150.477 1059.42 170.39 1059.42 191.624C1059.42 209.736 1044 232.075 1018.97 232.075C996.027 232.075 978.811 213.673 978.811 191.426C978.811 169.995 993.124 150.477 1018.97 150.477Z" fill="black"/>
<path d="M1183.23 296.032C1209.55 296.032 1230.88 274.698 1230.88 248.381C1230.88 222.064 1209.55 200.73 1183.23 200.73C1156.92 200.73 1135.58 222.064 1135.58 248.381C1135.58 274.698 1156.92 296.032 1183.23 296.032Z" fill="black"/>
<path d="M1246.54 183.224H1160.76L1236.89 0.324219H1322.36L1246.54 183.224Z" fill="black"/>
</svg>
