<svg width="69" height="8" viewBox="0 0 69 8" fill="none" xmlns="http://www.w3.org/2000/svg">
<path d="M7.36552 0.355469H1.35312V2.12382H4.55384L0.539673 6.13799L1.67142 7.28742L5.774 3.18484V6.54471H7.36552V0.355469Z" fill="black"/>
<path d="M14.227 0.175781H11.3092V7.2492H14.227C15.8539 7.2492 16.9326 6.63027 17.4454 5.5339C17.693 5.03876 17.7814 4.43752 17.7814 3.71249C17.7814 2.98746 17.6753 2.38622 17.4454 1.89109C16.9503 0.794705 15.8539 0.175781 14.227 0.175781ZM15.9246 4.98571C15.624 5.62231 15.0227 5.97598 13.9971 5.97598H12.8654V1.449H13.9971C15.0227 1.449 15.6417 1.78498 15.9246 2.43928C16.0838 2.77526 16.1545 3.1643 16.1545 3.71249C16.1545 4.26068 16.0838 4.64972 15.9246 4.98571Z" fill="black"/>
<path d="M19.1256 7.2492H23.8471V6.01135H20.6818V4.26068H23.8294V3.0582H20.6818V1.41363H23.8471V0.175781H19.1256V7.2492Z" fill="black"/>
<path d="M28.6399 3.05719C27.7558 2.82731 26.9246 2.70352 26.7124 2.24375C26.6771 2.13765 26.6594 2.04923 26.6594 1.92545C26.6594 1.80166 26.6771 1.71325 26.7301 1.60714C26.8716 1.28884 27.2783 1.112 27.8088 1.112C28.3747 1.112 28.746 1.30652 28.9229 1.66019C29.0113 1.83703 29.0467 2.04923 29.0467 2.2968H30.6382C30.6382 1.89008 30.5674 1.57178 30.4437 1.27116C30.0546 0.457714 29.1351 0.015625 27.8795 0.015625C26.5886 0.015625 25.6161 0.493081 25.2624 1.27116C25.1386 1.53641 25.0679 1.80166 25.0679 2.11997C25.0679 2.43827 25.1386 2.68584 25.227 2.91573C25.5276 3.57002 26.2703 3.88832 27.1368 4.11821C28.0387 4.36578 28.9406 4.50725 29.1881 5.03775C29.2412 5.14385 29.2765 5.24995 29.2765 5.40911C29.2765 5.53289 29.2412 5.65668 29.1881 5.79814C29.029 6.13413 28.5869 6.31097 27.9856 6.31097C27.3314 6.31097 26.9246 6.09876 26.7301 5.70973C26.6417 5.53289 26.624 5.303 26.624 5.05544H24.9264C24.9441 5.46216 24.9971 5.81583 25.1386 6.13413C25.5276 6.94758 26.4649 7.4604 27.9326 7.4604C29.3296 7.4604 30.3729 7.00063 30.7796 6.15181C30.9034 5.88656 30.9742 5.58594 30.9742 5.23227C30.9742 4.89628 30.9034 4.61335 30.815 4.36578C30.4437 3.60538 29.5948 3.30476 28.6399 3.05719Z" fill="black"/>
<path d="M33.7324 0.175781H32.194V7.2492H33.7324V0.175781Z" fill="black"/>
<path d="M38.7716 4.52699H40.593C40.5753 4.84529 40.5222 5.05749 40.4338 5.28738C40.1686 5.85325 39.585 6.13619 38.7716 6.13619C37.9227 6.13619 37.3038 5.81788 37.0032 5.18128C36.8264 4.79224 36.7556 4.38552 36.7556 3.71354C36.7556 3.04157 36.8264 2.61716 37.0032 2.24581C37.3038 1.6092 37.8874 1.2909 38.7362 1.2909C39.2667 1.2909 39.7265 1.41468 40.0271 1.69762C40.2923 1.90982 40.4338 2.22813 40.4869 2.61716H42.0784C42.0076 1.87445 41.6893 1.23785 41.1765 0.778076C40.593 0.265253 39.7618 0 38.7539 0C37.127 0 36.0306 0.654291 35.4647 1.8214C35.2172 2.33423 35.0934 2.95315 35.0934 3.71354C35.0934 4.47394 35.2172 5.09286 35.4647 5.60568C36.0129 6.75511 37.127 7.42709 38.7185 7.42709C40.2039 7.42709 41.2296 6.86121 41.7601 5.74715C42.0253 5.18128 42.1314 4.54467 42.1314 3.87269V3.39524H38.7716V4.52699Z" fill="black"/>
<path d="M48.3205 5.03876L45.0667 0.175781H43.4752V7.2492H44.996V2.40391L48.2321 7.2492H49.8236V0.175781H48.3205V5.03876Z" fill="black"/>
<path d="M58.348 5.6941C58.0297 5.95935 57.5876 6.1185 57.0394 6.1185C56.2436 6.1185 55.6601 5.8002 55.3594 5.18128C55.1826 4.80992 55.1119 4.35015 55.1119 3.71354C55.1119 3.07694 55.1826 2.63485 55.3594 2.26349C55.6424 1.66225 56.1906 1.30858 57.0394 1.30858C57.5876 1.30858 57.9943 1.45005 58.3126 1.7153C58.6132 1.98056 58.7724 2.33423 58.79 2.81168H60.4346C60.3992 1.99824 60.0986 1.30858 59.5151 0.813443C58.9138 0.30062 58.0827 0 57.0924 0C55.4832 0 54.3692 0.671974 53.8563 1.80372C53.6088 2.35191 53.485 2.97083 53.485 3.71354C53.485 4.45625 53.6088 5.07518 53.8563 5.62336C54.4045 6.77279 55.5186 7.42709 57.1101 7.42709C58.1004 7.42709 58.9846 7.14415 59.5681 6.61364C60.1163 6.13619 60.4523 5.46421 60.47 4.65077H58.8254C58.8077 5.11054 58.6309 5.44653 58.348 5.6941Z" fill="black"/>
<path d="M68.4085 1.78604C67.878 0.671974 66.7816 0 65.1901 0C63.5809 0 62.4668 0.671974 61.954 1.78604C61.7064 2.33423 61.5826 2.98852 61.5826 3.71354C61.5826 4.43857 61.7064 5.09286 61.9717 5.64105C62.5022 6.77279 63.5986 7.42709 65.1901 7.42709C66.7993 7.42709 67.878 6.77279 68.4262 5.64105C68.6914 5.09286 68.8152 4.43857 68.8152 3.71354C68.8152 2.98852 68.6561 2.33423 68.4085 1.78604ZM66.8877 5.11054C66.6048 5.72947 66.0566 6.08314 65.1724 6.08314C64.2882 6.08314 63.7223 5.71178 63.4571 5.11054C63.2803 4.7215 63.2095 4.2971 63.2095 3.69586C63.2095 3.09462 63.2803 2.67021 63.4571 2.28118C63.74 1.67994 64.2882 1.30858 65.1724 1.30858C66.0566 1.30858 66.6225 1.67994 66.8877 2.28118C67.0822 2.67021 67.1353 3.09462 67.1353 3.69586C67.1353 4.2971 67.0645 4.73919 66.8877 5.11054Z" fill="black"/>
</svg>
