<svg width="350" height="455" viewBox="0 0 350 455" fill="none" xmlns="http://www.w3.org/2000/svg">
<g filter="url(#filter0_d_661_573)">
<mask id="path-1-inside-1_661_573" fill="white">
<path fill-rule="evenodd" clip-rule="evenodd" d="M-730.112 368.909C-752.274 377.783 -763.749 401.187 -755.743 421.182L-622.884 752.98C-614.877 772.976 -590.42 781.992 -568.258 773.117L308.396 422.086C330.558 413.212 342.034 389.808 334.027 369.813L201.168 38.015C193.162 18.0193 168.705 9.00369 146.542 17.878L-730.112 368.909ZM-30.2408 99.9473C-28.6866 99.325 -27.9312 97.5606 -28.5535 96.0064C-29.1758 94.4523 -30.9402 93.6969 -32.4944 94.3192C-34.0485 94.9415 -34.8039 96.7059 -34.1816 98.26C-33.5593 99.8142 -31.7949 100.57 -30.2408 99.9473ZM-23.9489 107.506C-23.3265 109.06 -24.0819 110.825 -25.6361 111.447C-27.1903 112.069 -28.9546 111.314 -29.5769 109.76C-30.1992 108.205 -29.4439 106.441 -27.8897 105.819C-26.3355 105.196 -24.5712 105.952 -23.9489 107.506ZM-21.0314 122.946C-19.4773 122.324 -18.7219 120.56 -19.3442 119.006C-19.9665 117.451 -21.7309 116.696 -23.285 117.318C-24.8392 117.941 -25.5946 119.705 -24.9723 121.259C-24.3499 122.813 -22.5856 123.569 -21.0314 122.946ZM-14.7395 130.505C-14.1172 132.059 -14.8726 133.824 -16.4268 134.446C-17.9809 135.068 -19.7453 134.313 -20.3676 132.759C-20.9899 131.205 -20.2345 129.44 -18.6804 128.818C-17.1262 128.196 -15.3618 128.951 -14.7395 130.505ZM-11.8221 145.946C-10.2679 145.323 -9.51254 143.559 -10.1348 142.005C-10.7572 140.451 -12.5215 139.695 -14.0757 140.317C-15.6299 140.94 -16.3852 142.704 -15.7629 144.258C-15.1406 145.812 -13.3763 146.568 -11.8221 145.946ZM-5.53018 153.504C-4.90787 155.058 -5.66325 156.823 -7.21742 157.445C-8.77159 158.067 -10.5359 157.312 -11.1583 155.758C-11.7806 154.204 -11.0252 152.439 -9.47102 151.817C-7.91685 151.195 -6.1525 151.95 -5.53018 153.504ZM-2.61275 168.945C-1.05858 168.322 -0.303202 166.558 -0.925515 165.004C-1.54783 163.45 -3.31218 162.694 -4.86635 163.317C-6.42052 163.939 -7.1759 165.703 -6.55359 167.257C-5.93127 168.812 -4.16692 169.567 -2.61275 168.945ZM3.67915 176.503C4.30147 178.058 3.54608 179.822 1.99192 180.444C0.437747 181.067 -1.32661 180.311 -1.94892 178.757C-2.57123 177.203 -1.81585 175.438 -0.261684 174.816C1.29248 174.194 3.05684 174.949 3.67915 176.503ZM6.59658 191.944C8.15075 191.321 8.90613 189.557 8.28382 188.003C7.66151 186.449 5.89715 185.693 4.34298 186.316C2.78882 186.938 2.03343 188.702 2.65575 190.257C3.27806 191.811 5.04241 192.566 6.59658 191.944ZM12.8885 199.503C13.5108 201.057 12.7554 202.821 11.2012 203.443C9.64708 204.066 7.88273 203.31 7.26041 201.756C6.6381 200.202 7.39348 198.438 8.94765 197.815C10.5018 197.193 12.2662 197.948 12.8885 199.503ZM15.8059 214.943C17.3601 214.321 18.1155 212.556 17.4932 211.002C16.8708 209.448 15.1065 208.693 13.5523 209.315C11.9982 209.937 11.2428 211.702 11.8651 213.256C12.4874 214.81 14.2517 215.565 15.8059 214.943ZM22.0978 222.502C22.7201 224.056 21.9648 225.82 20.4106 226.442C18.8564 227.065 17.0921 226.309 16.4697 224.755C15.8474 223.201 16.6028 221.437 18.157 220.814C19.7112 220.192 21.4755 220.947 22.0978 222.502ZM25.0153 237.942C26.5694 237.32 27.3248 235.555 26.7025 234.001C26.0802 232.447 24.3158 231.692 22.7617 232.314C21.2075 232.936 20.4521 234.701 21.0744 236.255C21.6967 237.809 23.4611 238.564 25.0153 237.942ZM31.3072 245.501C31.9295 247.055 31.1741 248.819 29.6199 249.442C28.0658 250.064 26.3014 249.309 25.6791 247.754C25.0568 246.2 25.8122 244.436 27.3663 243.814C28.9205 243.191 30.6848 243.947 31.3072 245.501ZM34.2246 260.941C35.7788 260.319 36.5341 258.554 35.9118 257C35.2895 255.446 33.5252 254.691 31.971 255.313C30.4168 255.935 29.6614 257.7 30.2838 259.254C30.9061 260.808 32.6704 261.563 34.2246 260.941ZM40.5165 268.5C41.1388 270.054 40.3834 271.818 38.8293 272.441C37.2751 273.063 35.5107 272.308 34.8884 270.753C34.2661 269.199 35.0215 267.435 36.5757 266.813C38.1298 266.19 39.8942 266.946 40.5165 268.5ZM43.4339 283.94C44.9881 283.318 45.7435 281.554 45.1212 279.999C44.4988 278.445 42.7345 277.69 41.1803 278.312C39.6262 278.935 38.8708 280.699 39.4931 282.253C40.1154 283.807 41.8798 284.563 43.4339 283.94ZM49.7258 291.499C50.3481 293.053 49.5928 294.818 48.0386 295.44C46.4844 296.062 44.7201 295.307 44.0978 293.753C43.4754 292.198 44.2308 290.434 45.785 289.812C47.3392 289.189 49.1035 289.945 49.7258 291.499ZM52.6433 306.939C54.1974 306.317 54.9528 304.553 54.3305 302.999C53.7082 301.444 51.9438 300.689 50.3897 301.311C48.8355 301.934 48.0801 303.698 48.7024 305.252C49.3247 306.806 51.0891 307.562 52.6433 306.939ZM58.9352 314.498C59.5575 316.052 58.8021 317.817 57.2479 318.439C55.6938 319.061 53.9294 318.306 53.3071 316.752C52.6848 315.198 53.4402 313.433 54.9943 312.811C56.5485 312.189 58.3128 312.944 58.9352 314.498ZM61.8526 329.939C63.4068 329.316 64.1621 327.552 63.5398 325.998C62.9175 324.444 61.1532 323.688 59.599 324.31C58.0448 324.933 57.2894 326.697 57.9118 328.251C58.5341 329.805 60.2984 330.561 61.8526 329.939ZM68.1445 337.497C68.7668 339.051 68.0114 340.816 66.4573 341.438C64.9031 342.06 63.1387 341.305 62.5164 339.751C61.8941 338.197 62.6495 336.432 64.2037 335.81C65.7578 335.188 67.5222 335.943 68.1445 337.497ZM71.0619 352.938C72.6161 352.315 73.3715 350.551 72.7492 348.997C72.1269 347.443 70.3625 346.687 68.8083 347.31C67.2542 347.932 66.4988 349.696 67.1211 351.25C67.7434 352.805 69.5078 353.56 71.0619 352.938ZM77.3538 360.496C77.9761 362.051 77.2208 363.815 75.6666 364.437C74.1124 365.06 72.3481 364.304 71.7258 362.75C71.1034 361.196 71.8588 359.431 73.413 358.809C74.9672 358.187 76.7315 358.942 77.3538 360.496ZM80.2713 375.937C81.8254 375.314 82.5808 373.55 81.9585 371.996C81.3362 370.442 79.5718 369.686 78.0177 370.309C76.4635 370.931 75.7081 372.695 76.3304 374.25C76.9527 375.804 78.7171 376.559 80.2713 375.937ZM86.5632 383.496C87.1855 385.05 86.4301 386.814 84.8759 387.436C83.3218 388.059 81.5574 387.303 80.9351 385.749C80.3128 384.195 81.0682 382.431 82.6223 381.808C84.1765 381.186 85.9409 381.941 86.5632 383.496ZM89.4806 398.936C91.0348 398.314 91.7901 396.549 91.1678 394.995C90.5455 393.441 88.7812 392.686 87.227 393.308C85.6728 393.93 84.9174 395.695 85.5398 397.249C86.1621 398.803 87.9264 399.558 89.4806 398.936ZM95.7725 406.495C96.3948 408.049 95.6394 409.813 94.0853 410.435C92.5311 411.058 90.7667 410.302 90.1444 408.748C89.5221 407.194 90.2775 405.43 91.8317 404.807C93.3858 404.185 95.1502 404.94 95.7725 406.495ZM98.6899 421.935C100.244 421.313 100.999 419.548 100.377 417.994C99.7549 416.44 97.9905 415.685 96.4363 416.307C94.8822 416.929 94.1268 418.694 94.7491 420.248C95.3714 421.802 97.1358 422.557 98.6899 421.935ZM104.982 429.494C105.604 431.048 104.849 432.812 103.295 433.435C101.74 434.057 99.9761 433.302 99.3538 431.747C98.7314 430.193 99.4868 428.429 101.041 427.807C102.595 427.184 104.36 427.94 104.982 429.494ZM107.899 444.934C109.453 444.312 110.209 442.547 109.586 440.993C108.964 439.439 107.2 438.684 105.646 439.306C104.091 439.928 103.336 441.693 103.958 443.247C104.581 444.801 106.345 445.556 107.899 444.934ZM114.191 452.493C114.813 454.047 114.058 455.811 112.504 456.434C110.95 457.056 109.185 456.301 108.563 454.746C107.941 453.192 108.696 451.428 110.25 450.806C111.804 450.183 113.569 450.939 114.191 452.493ZM117.109 467.933C118.663 467.311 119.418 465.547 118.796 463.992C118.174 462.438 116.409 461.683 114.855 462.305C113.301 462.928 112.545 464.692 113.168 466.246C113.79 467.8 115.554 468.556 117.109 467.933ZM123.401 475.492C124.023 477.046 123.267 478.811 121.713 479.433C120.159 480.055 118.395 479.3 117.772 477.746C117.15 476.191 117.905 474.427 119.46 473.805C121.014 473.182 122.778 473.938 123.401 475.492ZM126.318 490.932C127.872 490.31 128.627 488.546 128.005 486.992C127.383 485.437 125.619 484.682 124.064 485.304C122.51 485.927 121.755 487.691 122.377 489.245C122.999 490.799 124.764 491.555 126.318 490.932Z"/>
</mask>
<path fill-rule="evenodd" clip-rule="evenodd" d="M-730.112 368.909C-752.274 377.783 -763.749 401.187 -755.743 421.182L-622.884 752.98C-614.877 772.976 -590.42 781.992 -568.258 773.117L308.396 422.086C330.558 413.212 342.034 389.808 334.027 369.813L201.168 38.015C193.162 18.0193 168.705 9.00369 146.542 17.878L-730.112 368.909ZM-30.2408 99.9473C-28.6866 99.325 -27.9312 97.5606 -28.5535 96.0064C-29.1758 94.4523 -30.9402 93.6969 -32.4944 94.3192C-34.0485 94.9415 -34.8039 96.7059 -34.1816 98.26C-33.5593 99.8142 -31.7949 100.57 -30.2408 99.9473ZM-23.9489 107.506C-23.3265 109.06 -24.0819 110.825 -25.6361 111.447C-27.1903 112.069 -28.9546 111.314 -29.5769 109.76C-30.1992 108.205 -29.4439 106.441 -27.8897 105.819C-26.3355 105.196 -24.5712 105.952 -23.9489 107.506ZM-21.0314 122.946C-19.4773 122.324 -18.7219 120.56 -19.3442 119.006C-19.9665 117.451 -21.7309 116.696 -23.285 117.318C-24.8392 117.941 -25.5946 119.705 -24.9723 121.259C-24.3499 122.813 -22.5856 123.569 -21.0314 122.946ZM-14.7395 130.505C-14.1172 132.059 -14.8726 133.824 -16.4268 134.446C-17.9809 135.068 -19.7453 134.313 -20.3676 132.759C-20.9899 131.205 -20.2345 129.44 -18.6804 128.818C-17.1262 128.196 -15.3618 128.951 -14.7395 130.505ZM-11.8221 145.946C-10.2679 145.323 -9.51254 143.559 -10.1348 142.005C-10.7572 140.451 -12.5215 139.695 -14.0757 140.317C-15.6299 140.94 -16.3852 142.704 -15.7629 144.258C-15.1406 145.812 -13.3763 146.568 -11.8221 145.946ZM-5.53018 153.504C-4.90787 155.058 -5.66325 156.823 -7.21742 157.445C-8.77159 158.067 -10.5359 157.312 -11.1583 155.758C-11.7806 154.204 -11.0252 152.439 -9.47102 151.817C-7.91685 151.195 -6.1525 151.95 -5.53018 153.504ZM-2.61275 168.945C-1.05858 168.322 -0.303202 166.558 -0.925515 165.004C-1.54783 163.45 -3.31218 162.694 -4.86635 163.317C-6.42052 163.939 -7.1759 165.703 -6.55359 167.257C-5.93127 168.812 -4.16692 169.567 -2.61275 168.945ZM3.67915 176.503C4.30147 178.058 3.54608 179.822 1.99192 180.444C0.437747 181.067 -1.32661 180.311 -1.94892 178.757C-2.57123 177.203 -1.81585 175.438 -0.261684 174.816C1.29248 174.194 3.05684 174.949 3.67915 176.503ZM6.59658 191.944C8.15075 191.321 8.90613 189.557 8.28382 188.003C7.66151 186.449 5.89715 185.693 4.34298 186.316C2.78882 186.938 2.03343 188.702 2.65575 190.257C3.27806 191.811 5.04241 192.566 6.59658 191.944ZM12.8885 199.503C13.5108 201.057 12.7554 202.821 11.2012 203.443C9.64708 204.066 7.88273 203.31 7.26041 201.756C6.6381 200.202 7.39348 198.438 8.94765 197.815C10.5018 197.193 12.2662 197.948 12.8885 199.503ZM15.8059 214.943C17.3601 214.321 18.1155 212.556 17.4932 211.002C16.8708 209.448 15.1065 208.693 13.5523 209.315C11.9982 209.937 11.2428 211.702 11.8651 213.256C12.4874 214.81 14.2517 215.565 15.8059 214.943ZM22.0978 222.502C22.7201 224.056 21.9648 225.82 20.4106 226.442C18.8564 227.065 17.0921 226.309 16.4697 224.755C15.8474 223.201 16.6028 221.437 18.157 220.814C19.7112 220.192 21.4755 220.947 22.0978 222.502ZM25.0153 237.942C26.5694 237.32 27.3248 235.555 26.7025 234.001C26.0802 232.447 24.3158 231.692 22.7617 232.314C21.2075 232.936 20.4521 234.701 21.0744 236.255C21.6967 237.809 23.4611 238.564 25.0153 237.942ZM31.3072 245.501C31.9295 247.055 31.1741 248.819 29.6199 249.442C28.0658 250.064 26.3014 249.309 25.6791 247.754C25.0568 246.2 25.8122 244.436 27.3663 243.814C28.9205 243.191 30.6848 243.947 31.3072 245.501ZM34.2246 260.941C35.7788 260.319 36.5341 258.554 35.9118 257C35.2895 255.446 33.5252 254.691 31.971 255.313C30.4168 255.935 29.6614 257.7 30.2838 259.254C30.9061 260.808 32.6704 261.563 34.2246 260.941ZM40.5165 268.5C41.1388 270.054 40.3834 271.818 38.8293 272.441C37.2751 273.063 35.5107 272.308 34.8884 270.753C34.2661 269.199 35.0215 267.435 36.5757 266.813C38.1298 266.19 39.8942 266.946 40.5165 268.5ZM43.4339 283.94C44.9881 283.318 45.7435 281.554 45.1212 279.999C44.4988 278.445 42.7345 277.69 41.1803 278.312C39.6262 278.935 38.8708 280.699 39.4931 282.253C40.1154 283.807 41.8798 284.563 43.4339 283.94ZM49.7258 291.499C50.3481 293.053 49.5928 294.818 48.0386 295.44C46.4844 296.062 44.7201 295.307 44.0978 293.753C43.4754 292.198 44.2308 290.434 45.785 289.812C47.3392 289.189 49.1035 289.945 49.7258 291.499ZM52.6433 306.939C54.1974 306.317 54.9528 304.553 54.3305 302.999C53.7082 301.444 51.9438 300.689 50.3897 301.311C48.8355 301.934 48.0801 303.698 48.7024 305.252C49.3247 306.806 51.0891 307.562 52.6433 306.939ZM58.9352 314.498C59.5575 316.052 58.8021 317.817 57.2479 318.439C55.6938 319.061 53.9294 318.306 53.3071 316.752C52.6848 315.198 53.4402 313.433 54.9943 312.811C56.5485 312.189 58.3128 312.944 58.9352 314.498ZM61.8526 329.939C63.4068 329.316 64.1621 327.552 63.5398 325.998C62.9175 324.444 61.1532 323.688 59.599 324.31C58.0448 324.933 57.2894 326.697 57.9118 328.251C58.5341 329.805 60.2984 330.561 61.8526 329.939ZM68.1445 337.497C68.7668 339.051 68.0114 340.816 66.4573 341.438C64.9031 342.06 63.1387 341.305 62.5164 339.751C61.8941 338.197 62.6495 336.432 64.2037 335.81C65.7578 335.188 67.5222 335.943 68.1445 337.497ZM71.0619 352.938C72.6161 352.315 73.3715 350.551 72.7492 348.997C72.1269 347.443 70.3625 346.687 68.8083 347.31C67.2542 347.932 66.4988 349.696 67.1211 351.25C67.7434 352.805 69.5078 353.56 71.0619 352.938ZM77.3538 360.496C77.9761 362.051 77.2208 363.815 75.6666 364.437C74.1124 365.06 72.3481 364.304 71.7258 362.75C71.1034 361.196 71.8588 359.431 73.413 358.809C74.9672 358.187 76.7315 358.942 77.3538 360.496ZM80.2713 375.937C81.8254 375.314 82.5808 373.55 81.9585 371.996C81.3362 370.442 79.5718 369.686 78.0177 370.309C76.4635 370.931 75.7081 372.695 76.3304 374.25C76.9527 375.804 78.7171 376.559 80.2713 375.937ZM86.5632 383.496C87.1855 385.05 86.4301 386.814 84.8759 387.436C83.3218 388.059 81.5574 387.303 80.9351 385.749C80.3128 384.195 81.0682 382.431 82.6223 381.808C84.1765 381.186 85.9409 381.941 86.5632 383.496ZM89.4806 398.936C91.0348 398.314 91.7901 396.549 91.1678 394.995C90.5455 393.441 88.7812 392.686 87.227 393.308C85.6728 393.93 84.9174 395.695 85.5398 397.249C86.1621 398.803 87.9264 399.558 89.4806 398.936ZM95.7725 406.495C96.3948 408.049 95.6394 409.813 94.0853 410.435C92.5311 411.058 90.7667 410.302 90.1444 408.748C89.5221 407.194 90.2775 405.43 91.8317 404.807C93.3858 404.185 95.1502 404.94 95.7725 406.495ZM98.6899 421.935C100.244 421.313 100.999 419.548 100.377 417.994C99.7549 416.44 97.9905 415.685 96.4363 416.307C94.8822 416.929 94.1268 418.694 94.7491 420.248C95.3714 421.802 97.1358 422.557 98.6899 421.935ZM104.982 429.494C105.604 431.048 104.849 432.812 103.295 433.435C101.74 434.057 99.9761 433.302 99.3538 431.747C98.7314 430.193 99.4868 428.429 101.041 427.807C102.595 427.184 104.36 427.94 104.982 429.494ZM107.899 444.934C109.453 444.312 110.209 442.547 109.586 440.993C108.964 439.439 107.2 438.684 105.646 439.306C104.091 439.928 103.336 441.693 103.958 443.247C104.581 444.801 106.345 445.556 107.899 444.934ZM114.191 452.493C114.813 454.047 114.058 455.811 112.504 456.434C110.95 457.056 109.185 456.301 108.563 454.746C107.941 453.192 108.696 451.428 110.25 450.806C111.804 450.183 113.569 450.939 114.191 452.493ZM117.109 467.933C118.663 467.311 119.418 465.547 118.796 463.992C118.174 462.438 116.409 461.683 114.855 462.305C113.301 462.928 112.545 464.692 113.168 466.246C113.79 467.8 115.554 468.556 117.109 467.933ZM123.401 475.492C124.023 477.046 123.267 478.811 121.713 479.433C120.159 480.055 118.395 479.3 117.772 477.746C117.15 476.191 117.905 474.427 119.46 473.805C121.014 473.182 122.778 473.938 123.401 475.492ZM126.318 490.932C127.872 490.31 128.627 488.546 128.005 486.992C127.383 485.437 125.619 484.682 124.064 485.304C122.51 485.927 121.755 487.691 122.377 489.245C122.999 490.799 124.764 491.555 126.318 490.932Z" fill="white"/>
<path d="M-754.814 420.811C-762.581 401.415 -751.482 378.543 -729.74 369.837L-730.483 367.98C-753.066 377.023 -764.918 400.958 -756.671 421.554L-754.814 420.811ZM-621.956 752.609L-754.814 420.811L-756.671 421.554L-623.812 753.352L-621.956 752.609ZM-568.63 772.189C-590.372 780.895 -614.189 772.004 -621.956 752.609L-623.812 753.352C-615.565 773.948 -590.469 783.088 -567.886 774.046L-568.63 772.189ZM308.024 421.158L-568.63 772.189L-567.886 774.046L308.768 423.015L308.024 421.158ZM333.099 370.185C340.865 389.58 329.766 412.452 308.024 421.158L308.768 423.015C331.351 413.972 343.203 390.037 334.956 369.441L333.099 370.185ZM200.24 38.3867L333.099 370.185L334.956 369.441L202.097 37.6433L200.24 38.3867ZM146.914 18.8063C168.656 10.1004 192.474 18.9913 200.24 38.3867L202.097 37.6433C193.85 17.0474 168.754 7.90696 146.171 16.9496L146.914 18.8063ZM-729.74 369.837L146.914 18.8063L146.171 16.9496L-730.483 367.98L-729.74 369.837ZM-29.4819 96.3782C-29.0648 97.4196 -29.571 98.6019 -30.6125 99.0189L-29.869 100.876C-27.8021 100.048 -26.7976 97.7016 -27.6252 95.6347L-29.4819 96.3782ZM-32.1226 95.2475C-31.0812 94.8305 -29.8989 95.3367 -29.4819 96.3782L-27.6252 95.6347C-28.4528 93.5679 -30.7992 92.5632 -32.8661 93.3909L-32.1226 95.2475ZM-33.2532 97.8883C-33.6703 96.8469 -33.1641 95.6646 -32.1226 95.2475L-32.8661 93.3909C-34.933 94.2185 -35.9375 96.5649 -35.1099 98.6318L-33.2532 97.8883ZM-30.6125 99.0189C-31.6539 99.4359 -32.8362 98.9298 -33.2532 97.8883L-35.1099 98.6318C-34.2823 100.699 -31.9359 101.703 -29.869 100.876L-30.6125 99.0189ZM-25.2644 112.375C-23.1975 111.548 -22.1929 109.201 -23.0205 107.134L-24.8772 107.878C-24.4602 108.919 -24.9664 110.101 -26.0078 110.518L-25.2644 112.375ZM-30.5053 110.131C-29.6777 112.198 -27.3313 113.203 -25.2644 112.375L-26.0078 110.518C-27.0493 110.936 -28.2316 110.429 -28.6486 109.388L-30.5053 110.131ZM-28.2614 104.89C-30.3283 105.718 -31.3329 108.064 -30.5053 110.131L-28.6486 109.388C-29.0656 108.346 -28.5594 107.164 -27.518 106.747L-28.2614 104.89ZM-23.0205 107.134C-23.8481 105.067 -26.1945 104.063 -28.2614 104.89L-27.518 106.747C-26.4765 106.33 -25.2942 106.836 -24.8772 107.878L-23.0205 107.134ZM-20.2725 119.377C-19.8555 120.419 -20.3617 121.601 -21.4031 122.018L-20.6597 123.875C-18.5928 123.047 -17.5882 120.701 -18.4158 118.634L-20.2725 119.377ZM-22.9133 118.247C-21.8719 117.83 -20.6895 118.336 -20.2725 119.377L-18.4158 118.634C-19.2435 116.567 -21.5898 115.562 -23.6567 116.39L-22.9133 118.247ZM-24.0439 120.887C-24.4609 119.846 -23.9547 118.664 -22.9133 118.247L-23.6567 116.39C-25.7236 117.218 -26.7282 119.564 -25.9006 121.631L-24.0439 120.887ZM-21.4031 122.018C-22.4446 122.435 -23.6269 121.929 -24.0439 120.887L-25.9006 121.631C-25.073 123.698 -22.7266 124.702 -20.6597 123.875L-21.4031 122.018ZM-16.055 135.374C-13.9881 134.547 -12.9836 132.2 -13.8112 130.133L-15.6679 130.877C-15.2508 131.918 -15.757 133.101 -16.7985 133.518L-16.055 135.374ZM-21.2959 133.13C-20.4683 135.197 -18.1219 136.202 -16.055 135.374L-16.7985 133.518C-17.8399 133.935 -19.0222 133.428 -19.4392 132.387L-21.2959 133.13ZM-19.0521 127.89C-21.119 128.717 -22.1235 131.064 -21.2959 133.13L-19.4392 132.387C-19.8563 131.346 -19.3501 130.163 -18.3086 129.746L-19.0521 127.89ZM-13.8112 130.133C-14.6388 128.067 -16.9852 127.062 -19.0521 127.89L-18.3086 129.746C-17.2672 129.329 -16.0849 129.835 -15.6679 130.877L-13.8112 130.133ZM-11.0632 142.376C-10.6462 143.418 -11.1524 144.6 -12.1938 145.017L-11.4504 146.874C-9.38346 146.046 -8.3789 143.7 -9.20651 141.633L-11.0632 142.376ZM-13.704 141.246C-12.6625 140.829 -11.4802 141.335 -11.0632 142.376L-9.20651 141.633C-10.0341 139.566 -12.3805 138.561 -14.4474 139.389L-13.704 141.246ZM-14.8346 143.887C-15.2516 142.845 -14.7454 141.663 -13.704 141.246L-14.4474 139.389C-16.5143 140.217 -17.5189 142.563 -16.6913 144.63L-14.8346 143.887ZM-12.1938 145.017C-13.2353 145.434 -14.4176 144.928 -14.8346 143.887L-16.6913 144.63C-15.8637 146.697 -13.5173 147.701 -11.4504 146.874L-12.1938 145.017ZM-6.84569 158.373C-4.77879 157.546 -3.77423 155.199 -4.60184 153.133L-6.45852 153.876C-6.04151 154.917 -6.54771 156.1 -7.58915 156.517L-6.84569 158.373ZM-12.0866 156.13C-11.259 158.196 -8.91259 159.201 -6.84569 158.373L-7.58915 156.517C-8.63059 156.934 -9.8129 156.428 -10.2299 155.386L-12.0866 156.13ZM-9.84275 150.889C-11.9096 151.716 -12.9142 154.063 -12.0866 156.13L-10.2299 155.386C-10.6469 154.345 -10.1407 153.162 -9.09929 152.745L-9.84275 150.889ZM-4.60184 153.133C-5.42945 151.066 -7.77585 150.061 -9.84275 150.889L-9.09929 152.745C-8.05785 152.328 -6.87554 152.835 -6.45852 153.876L-4.60184 153.133ZM-1.85386 165.376C-1.43684 166.417 -1.94304 167.599 -2.98448 168.016L-2.24102 169.873C-0.174127 169.045 0.830436 166.699 0.00282659 164.632L-1.85386 165.376ZM-4.49462 164.245C-3.45319 163.828 -2.27087 164.334 -1.85386 165.376L0.00282659 164.632C-0.824783 162.565 -3.17118 161.561 -5.23808 162.388L-4.49462 164.245ZM-5.62525 166.886C-6.04226 165.844 -5.53606 164.662 -4.49462 164.245L-5.23808 162.388C-7.30498 163.216 -8.30954 165.562 -7.48193 167.629L-5.62525 166.886ZM-2.98448 168.016C-4.02592 168.433 -5.20823 167.927 -5.62525 166.886L-7.48193 167.629C-6.65432 169.696 -4.30792 170.701 -2.24102 169.873L-2.98448 168.016ZM2.36364 181.373C4.43054 180.545 5.4351 178.199 4.60749 176.132L2.75081 176.875C3.16783 177.917 2.66163 179.099 1.62019 179.516L2.36364 181.373ZM-2.87726 179.129C-2.04965 181.196 0.296745 182.2 2.36364 181.373L1.62019 179.516C0.578749 179.933 -0.603562 179.427 -1.02058 178.385L-2.87726 179.129ZM-0.633411 173.888C-2.70031 174.715 -3.70487 177.062 -2.87726 179.129L-1.02058 178.385C-1.4376 177.344 -0.931394 176.161 0.110044 175.744L-0.633411 173.888ZM4.60749 176.132C3.77988 174.065 1.43349 173.06 -0.633411 173.888L0.110044 175.744C1.15148 175.327 2.33379 175.834 2.75081 176.875L4.60749 176.132ZM7.35548 188.375C7.77249 189.416 7.26629 190.598 6.22485 191.015L6.96831 192.872C9.03521 192.044 10.0398 189.698 9.21216 187.631L7.35548 188.375ZM4.71471 187.244C5.75615 186.827 6.93846 187.333 7.35548 188.375L9.21216 187.631C8.38455 185.564 6.03815 184.56 3.97126 185.387L4.71471 187.244ZM3.58409 189.885C3.16707 188.843 3.67327 187.661 4.71471 187.244L3.97126 185.387C1.90436 186.215 0.899795 188.561 1.7274 190.628L3.58409 189.885ZM6.22485 191.015C5.18342 191.432 4.00111 190.926 3.58409 189.885L1.7274 190.628C2.55501 192.695 4.90141 193.7 6.96831 192.872L6.22485 191.015ZM11.573 204.372C13.6399 203.544 14.6444 201.198 13.8168 199.131L11.9601 199.874C12.3772 200.916 11.871 202.098 10.8295 202.515L11.573 204.372ZM6.33207 202.128C7.15968 204.195 9.50608 205.199 11.573 204.372L10.8295 202.515C9.78808 202.932 8.60577 202.426 8.18876 201.384L6.33207 202.128ZM8.57592 196.887C6.50903 197.715 5.50446 200.061 6.33207 202.128L8.18876 201.384C7.77174 200.343 8.27794 199.161 9.31938 198.744L8.57592 196.887ZM13.8168 199.131C12.9892 197.064 10.6428 196.059 8.57592 196.887L9.31938 198.744C10.3608 198.327 11.5431 198.833 11.9601 199.874L13.8168 199.131ZM16.5648 211.374C16.9818 212.415 16.4756 213.598 15.4342 214.015L16.1776 215.871C18.2445 215.044 19.2491 212.697 18.4215 210.63L16.5648 211.374ZM13.924 210.243C14.9655 209.826 16.1478 210.332 16.5648 211.374L18.4215 210.63C17.5939 208.563 15.2475 207.559 13.1806 208.386L13.924 210.243ZM12.7934 212.884C12.3764 211.842 12.8826 210.66 13.924 210.243L13.1806 208.386C11.1137 209.214 10.1091 211.561 10.9367 213.627L12.7934 212.884ZM15.4342 214.015C14.3928 214.432 13.2104 213.925 12.7934 212.884L10.9367 213.627C11.7644 215.694 14.1107 216.699 16.1776 215.871L15.4342 214.015ZM20.7823 227.371C22.8492 226.543 23.8538 224.197 23.0262 222.13L21.1695 222.873C21.5865 223.915 21.0803 225.097 20.0389 225.514L20.7823 227.371ZM15.5414 225.127C16.369 227.194 18.7154 228.198 20.7823 227.371L20.0389 225.514C18.9974 225.931 17.8151 225.425 17.3981 224.384L15.5414 225.127ZM17.7853 219.886C15.7184 220.714 14.7138 223.06 15.5414 225.127L17.3981 224.384C16.9811 223.342 17.4873 222.16 18.5287 221.743L17.7853 219.886ZM23.0262 222.13C22.1986 220.063 19.8522 219.058 17.7853 219.886L18.5287 221.743C19.5702 221.326 20.7525 221.832 21.1695 222.873L23.0262 222.13ZM25.7741 234.373C26.1912 235.414 25.685 236.597 24.6435 237.014L25.387 238.87C27.4539 238.043 28.4584 235.696 27.6308 233.629L25.7741 234.373ZM23.1334 233.242C24.1748 232.825 25.3571 233.331 25.7741 234.373L27.6308 233.629C26.8032 231.563 24.4568 230.558 22.3899 231.386L23.1334 233.242ZM22.0028 235.883C21.5857 234.842 22.0919 233.659 23.1334 233.242L22.3899 231.386C20.323 232.213 19.3185 234.56 20.1461 236.627L22.0028 235.883ZM24.6435 237.014C23.6021 237.431 22.4198 236.925 22.0028 235.883L20.1461 236.627C20.9737 238.693 23.3201 239.698 25.387 238.87L24.6435 237.014ZM29.9916 250.37C32.0585 249.542 33.0631 247.196 32.2355 245.129L30.3788 245.872C30.7958 246.914 30.2896 248.096 29.2482 248.513L29.9916 250.37ZM24.7507 248.126C25.5784 250.193 27.9247 251.198 29.9916 250.37L29.2482 248.513C28.2068 248.93 27.0244 248.424 26.6074 247.383L24.7507 248.126ZM26.9946 242.885C24.9277 243.713 23.9231 246.059 24.7507 248.126L26.6074 247.383C26.1904 246.341 26.6966 245.159 27.738 244.742L26.9946 242.885ZM32.2355 245.129C31.4079 243.062 29.0615 242.058 26.9946 242.885L27.738 244.742C28.7795 244.325 29.9618 244.831 30.3788 245.872L32.2355 245.129ZM34.9835 257.372C35.4005 258.414 34.8943 259.596 33.8529 260.013L34.5963 261.869C36.6632 261.042 37.6678 258.695 36.8402 256.629L34.9835 257.372ZM32.3427 256.241C33.3842 255.824 34.5665 256.331 34.9835 257.372L36.8402 256.629C36.0126 254.562 33.6662 253.557 31.5993 254.385L32.3427 256.241ZM31.2121 258.882C30.7951 257.841 31.3013 256.658 32.3427 256.241L31.5993 254.385C29.5324 255.212 28.5278 257.559 29.3554 259.626L31.2121 258.882ZM33.8529 260.013C32.8114 260.43 31.6291 259.924 31.2121 258.882L29.3554 259.626C30.183 261.693 32.5294 262.697 34.5963 261.869L33.8529 260.013ZM39.201 273.369C41.2679 272.541 42.2724 270.195 41.4448 268.128L39.5881 268.872C40.0052 269.913 39.499 271.095 38.4575 271.512L39.201 273.369ZM33.9601 271.125C34.7877 273.192 37.1341 274.197 39.201 273.369L38.4575 271.512C37.4161 271.929 36.2338 271.423 35.8168 270.382L33.9601 271.125ZM36.2039 265.884C34.137 266.712 33.1325 269.058 33.9601 271.125L35.8168 270.382C35.3997 269.34 35.9059 268.158 36.9474 267.741L36.2039 265.884ZM41.4448 268.128C40.6172 266.061 38.2708 265.057 36.2039 265.884L36.9474 267.741C37.9888 267.324 39.1711 267.83 39.5881 268.872L41.4448 268.128ZM44.1928 280.371C44.6098 281.413 44.1036 282.595 43.0622 283.012L43.8056 284.869C45.8725 284.041 46.8771 281.695 46.0495 279.628L44.1928 280.371ZM41.552 279.241C42.5935 278.824 43.7758 279.33 44.1928 280.371L46.0495 279.628C45.2219 277.561 42.8755 276.556 40.8086 277.384L41.552 279.241ZM40.4214 281.881C40.0044 280.84 40.5106 279.658 41.552 279.241L40.8086 277.384C38.7417 278.211 37.7371 280.558 38.5647 282.625L40.4214 281.881ZM43.0622 283.012C42.0208 283.429 40.8384 282.923 40.4214 281.881L38.5647 282.625C39.3924 284.692 41.7388 285.696 43.8056 284.869L43.0622 283.012ZM48.4103 296.368C50.4772 295.541 51.4818 293.194 50.6542 291.127L48.7975 291.871C49.2145 292.912 48.7083 294.094 47.6669 294.512L48.4103 296.368ZM43.1694 294.124C43.997 296.191 46.3434 297.196 48.4103 296.368L47.6669 294.512C46.6254 294.929 45.4431 294.422 45.0261 293.381L43.1694 294.124ZM45.4133 288.883C43.3464 289.711 42.3418 292.057 43.1694 294.124L45.0261 293.381C44.6091 292.339 45.1153 291.157 46.1567 290.74L45.4133 288.883ZM50.6542 291.127C49.8266 289.06 47.4802 288.056 45.4133 288.883L46.1567 290.74C47.1982 290.323 48.3805 290.829 48.7975 291.871L50.6542 291.127ZM53.4022 303.37C53.8192 304.412 53.313 305.594 52.2715 306.011L53.015 307.868C55.0819 307.04 56.0864 304.694 55.2588 302.627L53.4022 303.37ZM50.7614 302.24C51.8028 301.823 52.9851 302.329 53.4022 303.37L55.2588 302.627C54.4312 300.56 52.0848 299.555 50.0179 300.383L50.7614 302.24ZM49.6308 304.88C49.2137 303.839 49.7199 302.657 50.7614 302.24L50.0179 300.383C47.951 301.211 46.9465 303.557 47.7741 305.624L49.6308 304.88ZM52.2715 306.011C51.2301 306.428 50.0478 305.922 49.6308 304.88L47.7741 305.624C48.6017 307.691 50.9481 308.695 53.015 307.868L52.2715 306.011ZM57.6197 319.367C59.6865 318.54 60.6911 316.193 59.8635 314.126L58.0068 314.87C58.4238 315.911 57.9176 317.094 56.8762 317.511L57.6197 319.367ZM52.3787 317.123C53.2064 319.19 55.5528 320.195 57.6197 319.367L56.8762 317.511C55.8348 317.928 54.6524 317.421 54.2354 316.38L52.3787 317.123ZM54.6226 311.883C52.5557 312.71 51.5511 315.057 52.3787 317.123L54.2354 316.38C53.8184 315.339 54.3246 314.156 55.3661 313.739L54.6226 311.883ZM59.8635 314.126C59.0359 312.06 56.6895 311.055 54.6226 311.883L55.3661 313.739C56.4075 313.322 57.5898 313.828 58.0068 314.87L59.8635 314.126ZM62.6115 326.369C63.0285 327.411 62.5223 328.593 61.4809 329.01L62.2243 330.867C64.2912 330.039 65.2958 327.693 64.4682 325.626L62.6115 326.369ZM59.9707 325.239C61.0122 324.822 62.1945 325.328 62.6115 326.369L64.4682 325.626C63.6406 323.559 61.2942 322.554 59.2273 323.382L59.9707 325.239ZM58.8401 327.88C58.4231 326.838 58.9293 325.656 59.9707 325.239L59.2273 323.382C57.1604 324.21 56.1558 326.556 56.9834 328.623L58.8401 327.88ZM61.4809 329.01C60.4394 329.427 59.2571 328.921 58.8401 327.88L56.9834 328.623C57.811 330.69 60.1574 331.695 62.2243 330.867L61.4809 329.01ZM66.829 342.366C68.8959 341.539 69.9004 339.192 69.0728 337.126L67.2162 337.869C67.6332 338.91 67.127 340.093 66.0855 340.51L66.829 342.366ZM61.5881 340.123C62.4157 342.189 64.7621 343.194 66.829 342.366L66.0855 340.51C65.0441 340.927 63.8618 340.421 63.4448 339.379L61.5881 340.123ZM63.8319 334.882C61.765 335.709 60.7605 338.056 61.5881 340.123L63.4448 339.379C63.0277 338.338 63.5339 337.155 64.5754 336.738L63.8319 334.882ZM69.0728 337.126C68.2452 335.059 65.8988 334.054 63.8319 334.882L64.5754 336.738C65.6168 336.321 66.7991 336.828 67.2162 337.869L69.0728 337.126ZM71.8208 349.369C72.2378 350.41 71.7316 351.592 70.6902 352.009L71.4337 353.866C73.5006 353.038 74.5051 350.692 73.6775 348.625L71.8208 349.369ZM69.1801 348.238C70.2215 347.821 71.4038 348.327 71.8208 349.369L73.6775 348.625C72.8499 346.558 70.5035 345.554 68.4366 346.381L69.1801 348.238ZM68.0494 350.879C67.6324 349.837 68.1386 348.655 69.1801 348.238L68.4366 346.381C66.3697 347.209 65.3651 349.555 66.1927 351.622L68.0494 350.879ZM70.6902 352.009C69.6488 352.426 68.4664 351.92 68.0494 350.879L66.1927 351.622C67.0204 353.689 69.3668 354.694 71.4337 353.866L70.6902 352.009ZM76.0383 365.366C78.1052 364.538 79.1098 362.191 78.2822 360.125L76.4255 360.868C76.8425 361.91 76.3363 363.092 75.2949 363.509L76.0383 365.366ZM70.7974 363.122C71.625 365.189 73.9714 366.193 76.0383 365.366L75.2949 363.509C74.2534 363.926 73.0711 363.42 72.6541 362.378L70.7974 363.122ZM73.0413 357.881C70.9744 358.708 69.9698 361.055 70.7974 363.122L72.6541 362.378C72.2371 361.337 72.7433 360.155 73.7847 359.737L73.0413 357.881ZM78.2822 360.125C77.4546 358.058 75.1082 357.053 73.0413 357.881L73.7847 359.737C74.8262 359.32 76.0085 359.827 76.4255 360.868L78.2822 360.125ZM81.0302 372.368C81.4472 373.409 80.941 374.591 79.8995 375.008L80.643 376.865C82.7099 376.037 83.7144 373.691 82.8868 371.624L81.0302 372.368ZM78.3894 371.237C79.4308 370.82 80.6131 371.326 81.0302 372.368L82.8868 371.624C82.0592 369.557 79.7128 368.553 77.6459 369.38L78.3894 371.237ZM77.2588 373.878C76.8418 372.836 77.3479 371.654 78.3894 371.237L77.6459 369.38C75.579 370.208 74.5745 372.554 75.4021 374.621L77.2588 373.878ZM79.8995 375.008C78.8581 375.425 77.6758 374.919 77.2588 373.878L75.4021 374.621C76.2297 376.688 78.5761 377.693 80.643 376.865L79.8995 375.008ZM85.2477 388.365C87.3146 387.537 88.3191 385.191 87.4915 383.124L85.6348 383.867C86.0518 384.909 85.5456 386.091 84.5042 386.508L85.2477 388.365ZM80.0067 386.121C80.8344 388.188 83.1808 389.192 85.2477 388.365L84.5042 386.508C83.4628 386.925 82.2804 386.419 81.8634 385.377L80.0067 386.121ZM82.2506 380.88C80.1837 381.708 79.1791 384.054 80.0067 386.121L81.8634 385.377C81.4464 384.336 81.9526 383.154 82.9941 382.737L82.2506 380.88ZM87.4915 383.124C86.6639 381.057 84.3175 380.052 82.2506 380.88L82.9941 382.737C84.0355 382.32 85.2178 382.826 85.6348 383.867L87.4915 383.124ZM90.2395 395.367C90.6565 396.408 90.1503 397.591 89.1089 398.008L89.8523 399.864C91.9192 399.037 92.9238 396.69 92.0962 394.623L90.2395 395.367ZM87.5987 394.236C88.6402 393.819 89.8225 394.325 90.2395 395.367L92.0962 394.623C91.2686 392.557 88.9222 391.552 86.8553 392.379L87.5987 394.236ZM86.4681 396.877C86.0511 395.836 86.5573 394.653 87.5987 394.236L86.8553 392.379C84.7884 393.207 83.7838 395.554 84.6114 397.62L86.4681 396.877ZM89.1089 398.008C88.0674 398.425 86.8851 397.918 86.4681 396.877L84.6114 397.62C85.439 399.687 87.7854 400.692 89.8523 399.864L89.1089 398.008ZM94.457 411.364C96.5239 410.536 97.5284 408.19 96.7008 406.123L94.8442 406.866C95.2612 407.908 94.755 409.09 93.7135 409.507L94.457 411.364ZM89.2161 409.12C90.0437 411.187 92.3901 412.191 94.457 411.364L93.7135 409.507C92.6721 409.924 91.4898 409.418 91.0728 408.377L89.2161 409.12ZM91.4599 403.879C89.393 404.707 88.3885 407.053 89.2161 409.12L91.0728 408.377C90.6558 407.335 91.162 406.153 92.2034 405.736L91.4599 403.879ZM96.7008 406.123C95.8732 404.056 93.5268 403.051 91.4599 403.879L92.2034 405.736C93.2448 405.319 94.4271 405.825 94.8442 406.866L96.7008 406.123ZM99.4488 418.366C99.8658 419.407 99.3596 420.59 98.3182 421.007L99.0617 422.863C101.129 422.036 102.133 419.689 101.306 417.622L99.4488 418.366ZM96.8081 417.235C97.8495 416.818 99.0318 417.324 99.4488 418.366L101.306 417.622C100.478 415.556 98.1315 414.551 96.0646 415.379L96.8081 417.235ZM95.6774 419.876C95.2604 418.835 95.7666 417.652 96.8081 417.235L96.0646 415.379C93.9977 416.206 92.9931 418.553 93.8208 420.62L95.6774 419.876ZM98.3182 421.007C97.2768 421.424 96.0944 420.918 95.6774 419.876L93.8208 420.62C94.6484 422.686 96.9948 423.691 99.0617 422.863L98.3182 421.007ZM103.666 434.363C105.733 433.535 106.738 431.189 105.91 429.122L104.053 429.865C104.471 430.907 103.964 432.089 102.923 432.506L103.666 434.363ZM98.4254 432.119C99.253 434.186 101.599 435.191 103.666 434.363L102.923 432.506C101.881 432.923 100.699 432.417 100.282 431.376L98.4254 432.119ZM100.669 426.878C98.6024 427.706 97.5978 430.052 98.4254 432.119L100.282 431.376C99.8651 430.334 100.371 429.152 101.413 428.735L100.669 426.878ZM105.91 429.122C105.083 427.055 102.736 426.051 100.669 426.878L101.413 428.735C102.454 428.318 103.636 428.824 104.053 429.865L105.91 429.122ZM108.658 441.365C109.075 442.406 108.569 443.589 107.528 444.006L108.271 445.863C110.338 445.035 111.342 442.688 110.515 440.622L108.658 441.365ZM106.017 440.234C107.059 439.817 108.241 440.324 108.658 441.365L110.515 440.622C109.687 438.555 107.341 437.55 105.274 438.378L106.017 440.234ZM104.887 442.875C104.47 441.834 104.976 440.651 106.017 440.234L105.274 438.378C103.207 439.205 102.202 441.552 103.03 443.619L104.887 442.875ZM107.528 444.006C106.486 444.423 105.304 443.917 104.887 442.875L103.03 443.619C103.858 445.685 106.204 446.69 108.271 445.863L107.528 444.006ZM112.876 457.362C114.943 456.534 115.947 454.188 115.12 452.121L113.263 452.865C113.68 453.906 113.174 455.088 112.132 455.505L112.876 457.362ZM107.635 455.118C108.462 457.185 110.809 458.19 112.876 457.362L112.132 455.505C111.091 455.922 109.908 455.416 109.491 454.375L107.635 455.118ZM109.879 449.877C107.812 450.705 106.807 453.051 107.635 455.118L109.491 454.375C109.074 453.333 109.581 452.151 110.622 451.734L109.879 449.877ZM115.12 452.121C114.292 450.054 111.946 449.05 109.879 449.877L110.622 451.734C111.663 451.317 112.846 451.823 113.263 452.865L115.12 452.121ZM117.867 464.364C118.285 465.406 117.778 466.588 116.737 467.005L117.48 468.862C119.547 468.034 120.552 465.688 119.724 463.621L117.867 464.364ZM115.227 463.234C116.268 462.817 117.45 463.323 117.867 464.364L119.724 463.621C118.897 461.554 116.55 460.549 114.483 461.377L115.227 463.234ZM114.096 465.874C113.679 464.833 114.185 463.651 115.227 463.234L114.483 461.377C112.416 462.205 111.412 464.551 112.239 466.618L114.096 465.874ZM116.737 467.005C115.695 467.422 114.513 466.916 114.096 465.874L112.239 466.618C113.067 468.685 115.413 469.689 117.48 468.862L116.737 467.005ZM122.085 480.361C124.152 479.534 125.156 477.187 124.329 475.12L122.472 475.864C122.889 476.905 122.383 478.087 121.342 478.505L122.085 480.361ZM116.844 478.117C117.672 480.184 120.018 481.189 122.085 480.361L121.342 478.505C120.3 478.922 119.118 478.415 118.701 477.374L116.844 478.117ZM119.088 472.876C117.021 473.704 116.016 476.051 116.844 478.117L118.701 477.374C118.284 476.332 118.79 475.15 119.831 474.733L119.088 472.876ZM124.329 475.12C123.501 473.053 121.155 472.049 119.088 472.876L119.831 474.733C120.873 474.316 122.055 474.822 122.472 475.864L124.329 475.12ZM127.077 487.363C127.494 488.405 126.988 489.587 125.946 490.004L126.69 491.861C128.757 491.033 129.761 488.687 128.934 486.62L127.077 487.363ZM124.436 486.233C125.477 485.816 126.66 486.322 127.077 487.363L128.934 486.62C128.106 484.553 125.76 483.548 123.693 484.376L124.436 486.233ZM123.305 488.873C122.888 487.832 123.395 486.65 124.436 486.233L123.693 484.376C121.626 485.204 120.621 487.55 121.449 489.617L123.305 488.873ZM125.946 490.004C124.905 490.421 123.722 489.915 123.305 488.873L121.449 489.617C122.276 491.684 124.623 492.688 126.69 491.861L125.946 490.004Z" fill="black" mask="url(#path-1-inside-1_661_573)"/>
<mask id="mask0_661_573" style="mask-type:alpha" maskUnits="userSpaceOnUse" x="-759" y="14" width="1096" height="763">
<path fill-rule="evenodd" clip-rule="evenodd" d="M-730.112 368.909C-752.274 377.783 -763.749 401.187 -755.743 421.182L-622.884 752.98C-614.877 772.976 -590.42 781.992 -568.258 773.117L308.396 422.086C330.558 413.212 342.034 389.808 334.027 369.813L201.168 38.015C193.162 18.0193 168.705 9.00369 146.542 17.878L-730.112 368.909ZM-30.2408 99.9473C-28.6866 99.325 -27.9312 97.5606 -28.5535 96.0064C-29.1758 94.4523 -30.9402 93.6969 -32.4944 94.3192C-34.0485 94.9415 -34.8039 96.7059 -34.1816 98.26C-33.5593 99.8142 -31.7949 100.57 -30.2408 99.9473ZM-23.9489 107.506C-23.3265 109.06 -24.0819 110.825 -25.6361 111.447C-27.1903 112.069 -28.9546 111.314 -29.5769 109.76C-30.1992 108.205 -29.4439 106.441 -27.8897 105.819C-26.3355 105.196 -24.5712 105.952 -23.9489 107.506ZM-21.0314 122.946C-19.4773 122.324 -18.7219 120.56 -19.3442 119.006C-19.9665 117.451 -21.7309 116.696 -23.285 117.318C-24.8392 117.941 -25.5946 119.705 -24.9723 121.259C-24.3499 122.813 -22.5856 123.569 -21.0314 122.946ZM-14.7395 130.505C-14.1172 132.059 -14.8726 133.824 -16.4268 134.446C-17.9809 135.068 -19.7453 134.313 -20.3676 132.759C-20.9899 131.205 -20.2345 129.44 -18.6804 128.818C-17.1262 128.196 -15.3618 128.951 -14.7395 130.505ZM-11.8221 145.946C-10.2679 145.323 -9.51254 143.559 -10.1348 142.005C-10.7572 140.451 -12.5215 139.695 -14.0757 140.317C-15.6299 140.94 -16.3852 142.704 -15.7629 144.258C-15.1406 145.812 -13.3763 146.568 -11.8221 145.946ZM-5.53018 153.504C-4.90787 155.058 -5.66325 156.823 -7.21742 157.445C-8.77159 158.067 -10.5359 157.312 -11.1583 155.758C-11.7806 154.204 -11.0252 152.439 -9.47102 151.817C-7.91685 151.195 -6.1525 151.95 -5.53018 153.504ZM-2.61275 168.945C-1.05858 168.322 -0.303202 166.558 -0.925515 165.004C-1.54783 163.45 -3.31218 162.694 -4.86635 163.317C-6.42052 163.939 -7.1759 165.703 -6.55359 167.257C-5.93127 168.812 -4.16692 169.567 -2.61275 168.945ZM3.67915 176.503C4.30147 178.058 3.54608 179.822 1.99192 180.444C0.437747 181.067 -1.32661 180.311 -1.94892 178.757C-2.57123 177.203 -1.81585 175.438 -0.261684 174.816C1.29248 174.194 3.05684 174.949 3.67915 176.503ZM6.59658 191.944C8.15075 191.321 8.90613 189.557 8.28382 188.003C7.66151 186.449 5.89715 185.693 4.34298 186.316C2.78882 186.938 2.03343 188.702 2.65575 190.257C3.27806 191.811 5.04241 192.566 6.59658 191.944ZM12.8885 199.503C13.5108 201.057 12.7554 202.821 11.2012 203.443C9.64708 204.066 7.88273 203.31 7.26041 201.756C6.6381 200.202 7.39348 198.438 8.94765 197.815C10.5018 197.193 12.2662 197.948 12.8885 199.503ZM15.8059 214.943C17.3601 214.321 18.1155 212.556 17.4932 211.002C16.8708 209.448 15.1065 208.693 13.5523 209.315C11.9982 209.937 11.2428 211.702 11.8651 213.256C12.4874 214.81 14.2517 215.565 15.8059 214.943ZM22.0978 222.502C22.7201 224.056 21.9648 225.82 20.4106 226.442C18.8564 227.065 17.0921 226.309 16.4697 224.755C15.8474 223.201 16.6028 221.437 18.157 220.814C19.7112 220.192 21.4755 220.947 22.0978 222.502ZM25.0153 237.942C26.5694 237.32 27.3248 235.555 26.7025 234.001C26.0802 232.447 24.3158 231.692 22.7617 232.314C21.2075 232.936 20.4521 234.701 21.0744 236.255C21.6967 237.809 23.4611 238.564 25.0153 237.942ZM31.3072 245.501C31.9295 247.055 31.1741 248.819 29.6199 249.442C28.0658 250.064 26.3014 249.309 25.6791 247.754C25.0568 246.2 25.8122 244.436 27.3663 243.814C28.9205 243.191 30.6848 243.947 31.3072 245.501ZM34.2246 260.941C35.7788 260.319 36.5341 258.554 35.9118 257C35.2895 255.446 33.5252 254.691 31.971 255.313C30.4168 255.935 29.6614 257.7 30.2838 259.254C30.9061 260.808 32.6704 261.563 34.2246 260.941ZM40.5165 268.5C41.1388 270.054 40.3834 271.818 38.8293 272.441C37.2751 273.063 35.5107 272.308 34.8884 270.753C34.2661 269.199 35.0215 267.435 36.5757 266.813C38.1298 266.19 39.8942 266.946 40.5165 268.5ZM43.4339 283.94C44.9881 283.318 45.7435 281.554 45.1212 279.999C44.4988 278.445 42.7345 277.69 41.1803 278.312C39.6262 278.935 38.8708 280.699 39.4931 282.253C40.1154 283.807 41.8798 284.563 43.4339 283.94ZM49.7258 291.499C50.3481 293.053 49.5928 294.818 48.0386 295.44C46.4844 296.062 44.7201 295.307 44.0978 293.753C43.4754 292.198 44.2308 290.434 45.785 289.812C47.3392 289.189 49.1035 289.945 49.7258 291.499ZM52.6433 306.939C54.1974 306.317 54.9528 304.553 54.3305 302.999C53.7082 301.444 51.9438 300.689 50.3897 301.311C48.8355 301.934 48.0801 303.698 48.7024 305.252C49.3247 306.806 51.0891 307.562 52.6433 306.939ZM58.9352 314.498C59.5575 316.052 58.8021 317.817 57.2479 318.439C55.6938 319.061 53.9294 318.306 53.3071 316.752C52.6848 315.198 53.4402 313.433 54.9943 312.811C56.5485 312.189 58.3128 312.944 58.9352 314.498ZM61.8526 329.939C63.4068 329.316 64.1621 327.552 63.5398 325.998C62.9175 324.444 61.1532 323.688 59.599 324.31C58.0448 324.933 57.2894 326.697 57.9118 328.251C58.5341 329.805 60.2984 330.561 61.8526 329.939ZM68.1445 337.497C68.7668 339.051 68.0114 340.816 66.4573 341.438C64.9031 342.06 63.1387 341.305 62.5164 339.751C61.8941 338.197 62.6495 336.432 64.2037 335.81C65.7578 335.188 67.5222 335.943 68.1445 337.497ZM71.0619 352.938C72.6161 352.315 73.3715 350.551 72.7492 348.997C72.1269 347.443 70.3625 346.687 68.8083 347.31C67.2542 347.932 66.4988 349.696 67.1211 351.25C67.7434 352.805 69.5078 353.56 71.0619 352.938ZM77.3538 360.496C77.9761 362.051 77.2208 363.815 75.6666 364.437C74.1124 365.06 72.3481 364.304 71.7258 362.75C71.1034 361.196 71.8588 359.431 73.413 358.809C74.9672 358.187 76.7315 358.942 77.3538 360.496ZM80.2713 375.937C81.8254 375.314 82.5808 373.55 81.9585 371.996C81.3362 370.442 79.5718 369.686 78.0177 370.309C76.4635 370.931 75.7081 372.695 76.3304 374.25C76.9527 375.804 78.7171 376.559 80.2713 375.937ZM86.5632 383.496C87.1855 385.05 86.4301 386.814 84.8759 387.436C83.3218 388.059 81.5574 387.303 80.9351 385.749C80.3128 384.195 81.0682 382.431 82.6223 381.808C84.1765 381.186 85.9409 381.941 86.5632 383.496ZM89.4806 398.936C91.0348 398.314 91.7901 396.549 91.1678 394.995C90.5455 393.441 88.7812 392.686 87.227 393.308C85.6728 393.93 84.9174 395.695 85.5398 397.249C86.1621 398.803 87.9264 399.558 89.4806 398.936ZM95.7725 406.495C96.3948 408.049 95.6394 409.813 94.0853 410.435C92.5311 411.058 90.7667 410.302 90.1444 408.748C89.5221 407.194 90.2775 405.43 91.8317 404.807C93.3858 404.185 95.1502 404.94 95.7725 406.495ZM98.6899 421.935C100.244 421.313 100.999 419.548 100.377 417.994C99.7549 416.44 97.9905 415.685 96.4363 416.307C94.8822 416.929 94.1268 418.694 94.7491 420.248C95.3714 421.802 97.1358 422.557 98.6899 421.935ZM104.982 429.494C105.604 431.048 104.849 432.812 103.295 433.435C101.74 434.057 99.9761 433.302 99.3538 431.747C98.7314 430.193 99.4868 428.429 101.041 427.807C102.595 427.184 104.36 427.94 104.982 429.494ZM107.899 444.934C109.453 444.312 110.209 442.547 109.586 440.993C108.964 439.439 107.2 438.684 105.646 439.306C104.091 439.928 103.336 441.693 103.958 443.247C104.581 444.801 106.345 445.556 107.899 444.934ZM114.191 452.493C114.813 454.047 114.058 455.811 112.504 456.434C110.95 457.056 109.185 456.301 108.563 454.746C107.941 453.192 108.696 451.428 110.25 450.806C111.804 450.183 113.569 450.939 114.191 452.493ZM117.109 467.933C118.663 467.311 119.418 465.547 118.796 463.992C118.174 462.438 116.409 461.683 114.855 462.305C113.301 462.928 112.545 464.692 113.168 466.246C113.79 467.8 115.554 468.556 117.109 467.933ZM123.401 475.492C124.023 477.046 123.267 478.811 121.713 479.433C120.159 480.055 118.395 479.3 117.772 477.746C117.15 476.191 117.905 474.427 119.46 473.805C121.014 473.182 122.778 473.938 123.401 475.492ZM126.318 490.932C127.872 490.31 128.627 488.546 128.005 486.992C127.383 485.437 125.619 484.682 124.064 485.304C122.51 485.927 121.755 487.691 122.377 489.245C122.999 490.799 124.764 491.555 126.318 490.932Z" fill="white"/>
</mask>
<g mask="url(#mask0_661_573)">
<rect x="-820.655" y="357.777" width="1104.16" height="106.049" transform="rotate(-21.8222 -820.655 357.777)" fill="#80D8FF"/>
<rect x="-665.517" y="745.214" width="1104.16" height="106.049" transform="rotate(-21.8222 -665.517 745.214)" fill="#80D8FF"/>
<path d="M68.8607 198.282C68.4444 197.242 67.6741 196.502 66.5499 196.062C65.4504 195.612 64.1703 195.679 62.7098 196.264C61.472 196.76 60.5982 197.411 60.0884 198.218C59.5688 199.001 59.4824 199.826 59.8294 200.692C60.0078 201.138 60.258 201.511 60.58 201.813C60.8921 202.091 61.318 202.293 61.8578 202.422C62.4124 202.516 63.0809 202.535 63.8633 202.481C64.6705 202.416 65.6583 202.265 66.8269 202.026C69.7482 201.431 72.1598 201.428 74.0615 202.016C75.9633 202.605 77.3701 204.038 78.2821 206.316L78.4605 206.761C78.9463 207.974 79.1646 209.165 79.1155 210.334C79.0812 211.468 78.7944 212.545 78.255 213.565C77.7156 214.585 76.9385 215.514 75.9237 216.351C74.9089 217.189 73.6712 217.9 72.2106 218.485C70.5024 219.169 68.8981 219.538 67.3977 219.593C65.9122 219.613 64.5677 219.376 63.3642 218.881C62.1508 218.362 61.0933 217.622 60.1917 216.662C59.2802 215.677 58.5518 214.503 58.0066 213.142L57.5606 212.028L62.4622 210.065L62.8191 210.956C63.4436 212.516 64.3898 213.588 65.6577 214.171C66.9404 214.721 68.5349 214.614 70.4411 213.85C71.9264 213.255 72.8992 212.493 73.3594 211.561C73.8196 210.63 73.8712 209.719 73.5144 208.828C73.3458 208.407 73.113 208.041 72.8157 207.729C72.5086 207.392 72.1099 207.15 71.6196 207.001C71.1194 206.828 70.4979 206.747 69.7551 206.757C69.0124 206.767 68.1112 206.884 67.0515 207.107C65.6503 207.41 64.3356 207.606 63.1076 207.695C61.8696 207.76 60.7232 207.659 59.6684 207.392C58.6383 207.115 57.722 206.62 56.9196 205.907C56.1171 205.195 55.4581 204.195 54.9427 202.907L54.8535 202.684C54.4272 201.62 54.2461 200.558 54.3101 199.498C54.3889 198.404 54.6782 197.369 55.178 196.393C55.7025 195.407 56.4351 194.511 57.3757 193.703C58.341 192.886 59.5044 192.205 60.866 191.659C62.4008 191.045 63.8516 190.722 65.2183 190.692C66.5751 190.637 67.7983 190.823 68.8879 191.248C70.0022 191.664 70.9507 192.275 71.7334 193.082C72.5408 193.879 73.1577 194.809 73.5839 195.874L74.1192 197.211L69.2176 199.173L68.8607 198.282ZM75.6419 186.346L92.055 179.774L93.9285 184.453L82.417 189.062L84.7961 195.004L95.8619 190.573L97.7354 195.251L86.6696 199.682L89.0784 205.698L101.035 200.91L102.909 205.589L86.0502 212.34L75.6419 186.346ZM98.379 177.242L114.792 170.67L116.666 175.348L105.154 179.958L107.533 185.899L118.599 181.468L120.473 186.147L109.407 190.578L111.816 196.594L123.773 191.806L125.646 196.485L108.787 203.235L98.379 177.242ZM156.471 173.542L155.357 173.988L141.142 160.118L146.49 157.977L156.803 168.239L157.472 167.971L157.853 153.427L163.2 151.286L162.487 171.133L161.373 171.579L165.03 180.714L160.129 182.677L156.471 173.542ZM169.372 160.534C168.024 157.168 167.82 154.219 168.76 151.688C169.725 149.147 171.705 147.277 174.7 146.078C177.696 144.878 180.407 144.87 182.834 146.053C185.285 147.225 187.185 149.495 188.533 152.862L190.853 158.655C192.241 162.12 192.442 165.099 191.458 167.59C190.498 170.071 188.52 171.912 185.525 173.111C182.529 174.311 179.816 174.349 177.384 173.226C174.977 172.092 173.08 169.793 171.692 166.327L169.372 160.534ZM183.741 168.655C184.632 168.298 185.32 167.865 185.805 167.354C186.28 166.82 186.599 166.218 186.763 165.549C186.926 164.881 186.938 164.158 186.799 163.38C186.66 162.603 186.417 161.781 186.07 160.914L183.513 154.527C183.185 153.711 182.792 152.978 182.331 152.329C181.87 151.681 181.35 151.171 180.77 150.8C180.191 150.429 179.545 150.213 178.831 150.154C178.108 150.07 177.326 150.197 176.484 150.534C175.643 150.871 174.989 151.319 174.524 151.879C174.049 152.414 173.73 153.016 173.566 153.684C173.403 154.353 173.379 155.081 173.493 155.868C173.607 156.655 173.828 157.458 174.155 158.275L176.712 164.661C177.059 165.528 177.451 166.29 177.887 166.949C178.323 167.607 178.831 168.122 179.41 168.493C179.99 168.864 180.636 169.08 181.349 169.139C182.052 169.173 182.849 169.012 183.741 168.655ZM207.003 133.746L213.813 150.753C215.003 153.724 215.142 156.368 214.232 158.686C213.346 160.994 211.356 162.768 208.262 164.007C205.167 165.246 202.491 165.341 200.233 164.292C197.999 163.233 196.287 161.218 195.098 158.248L188.288 141.24L193.189 139.278L199.999 156.285C200.614 157.82 201.454 158.877 202.519 159.456C203.583 160.035 204.883 160.017 206.418 159.402C207.953 158.788 208.906 157.903 209.277 156.749C209.648 155.595 209.526 154.251 208.912 152.716L202.101 135.709L207.003 133.746ZM69.7079 240.427L88.4233 232.933L90.2968 237.612L83.3899 240.378L91.9248 261.692L87.0232 263.655L78.4883 242.34L71.5814 245.106L69.7079 240.427ZM92.705 231.219L97.6066 229.256L101.859 239.876L110.251 236.516L105.999 225.896L110.9 223.933L121.309 249.926L116.407 251.889L112.125 241.195L103.733 244.555L108.015 255.25L103.113 257.212L92.705 231.219ZM116.222 221.802L132.635 215.23L134.509 219.909L122.997 224.518L125.376 230.46L136.442 226.029L138.315 230.707L127.25 235.138L129.658 241.154L141.615 236.366L143.489 241.045L126.63 247.796L116.222 221.802ZM166.486 231.837L161.584 233.799L158.462 226.001C158.224 225.407 157.87 224.989 157.399 224.746C156.953 224.494 156.372 224.511 155.654 224.799L150.009 227.059L153.935 236.862L149.033 238.825L138.625 212.831L148.577 208.847C149.913 208.311 151.164 208.026 152.327 207.991C153.491 207.956 154.541 208.139 155.477 208.539C156.428 208.906 157.25 209.452 157.944 210.18C158.662 210.898 159.219 211.752 159.616 212.742L159.973 213.633C160.399 214.698 160.516 215.814 160.323 216.983C160.12 218.127 159.524 219.185 158.534 220.155L158.802 220.824C159.708 220.576 160.522 220.638 161.246 221.009C161.993 221.37 162.541 221.984 162.888 222.85L166.486 231.837ZM148.136 222.38L152.815 220.507C154.003 220.031 154.798 219.397 155.198 218.604C155.589 217.787 155.582 216.871 155.175 215.856L154.997 215.41C154.65 214.544 154.043 213.925 153.176 213.554C152.3 213.158 151.267 213.198 150.079 213.674L145.4 215.548L148.136 222.38ZM161.696 203.593L178.109 197.021L179.983 201.7L168.471 206.309L170.85 212.251L181.916 207.82L183.79 212.499L172.724 216.93L175.133 222.945L187.09 218.157L188.963 222.836L172.105 229.587L161.696 203.593ZM195.202 190.177L202.458 208.298L197.557 210.261L190.3 192.139L195.202 190.177ZM205.483 212.731C205.681 213.226 205.77 213.736 205.751 214.261C205.746 214.752 205.647 215.222 205.454 215.673C205.251 216.099 204.962 216.487 204.586 216.839C204.244 217.206 203.838 217.483 203.368 217.672C202.873 217.87 202.375 217.954 201.875 217.925C201.385 217.92 200.919 217.833 200.478 217.665C200.028 217.472 199.619 217.205 199.252 216.863C198.901 216.487 198.626 216.052 198.428 215.556C198.229 215.061 198.133 214.569 198.137 214.078C198.157 213.553 198.268 213.078 198.471 212.652C198.664 212.201 198.936 211.805 199.288 211.463C199.629 211.097 200.048 210.814 200.543 210.616C201.013 210.428 201.498 210.348 201.998 210.378C202.513 210.373 202.996 210.467 203.447 210.66C203.888 210.828 204.284 211.1 204.636 211.476C205.002 211.818 205.285 212.236 205.483 212.731Z" fill="black"/>
</g>
<path d="M-729.926 369.373L146.728 18.3422C168.68 9.55206 192.818 18.5053 200.704 38.2009L333.563 369.999C341.45 389.694 330.162 412.832 308.21 421.622L-568.444 772.653C-590.396 781.443 -614.533 772.49 -622.42 752.794L-755.279 420.997C-763.165 401.301 -751.878 378.163 -729.926 369.373Z" stroke="black"/>
<path d="M15.9186 109.426L17.144 108.935L13.8133 100.617L12.5879 101.108L11.6511 98.7686L17.3511 96.4862C17.97 96.2384 18.5494 96.1069 19.0891 96.0919C19.6412 96.0719 20.1377 96.146 20.5785 96.3142C21.0316 96.4774 21.4229 96.7372 21.7523 97.0937C22.0892 97.4327 22.3543 97.8437 22.5476 98.3264L22.6368 98.5492C22.9342 99.2919 22.9616 99.9703 22.7192 100.584C22.4892 101.194 22.0932 101.711 21.5313 102.137L21.6652 102.471C22.3658 102.392 23.0121 102.499 23.6039 102.794C24.2032 103.071 24.6515 103.581 24.9489 104.323L25.0381 104.546C25.2314 105.029 25.3257 105.516 25.3209 106.006C25.3236 106.479 25.2198 106.937 25.0095 107.38C24.8066 107.806 24.4985 108.202 24.0851 108.569C23.6842 108.93 23.1742 109.235 22.5553 109.483L16.8553 111.765L15.9186 109.426ZM19.5948 107.954L21.3772 107.24C21.8971 107.032 22.2733 106.752 22.5059 106.4C22.7385 106.049 22.7508 105.613 22.5426 105.093L22.498 104.982C22.2898 104.462 21.9802 104.155 21.5692 104.061C21.1581 103.967 20.6927 104.024 20.1728 104.232L18.3904 104.946L19.5948 107.954ZM17.4536 102.607L19.2361 101.893C19.7559 101.685 20.1346 101.411 20.3722 101.072C20.6048 100.72 20.617 100.284 20.4089 99.7645L20.3643 99.6531C20.1561 99.1332 19.849 98.8325 19.4429 98.7509C19.0319 98.657 18.5664 98.7141 18.0465 98.9223L16.2641 99.636L17.4536 102.607ZM25.079 99.2517C24.4049 97.5683 24.3029 96.0939 24.7729 94.8285C25.2552 93.5582 26.2453 92.6232 27.743 92.0235C29.2407 91.4237 30.5963 91.4195 31.8097 92.0108C33.0355 92.5972 33.9854 93.7321 34.6595 95.4155L35.8193 98.3119C36.5132 100.045 36.614 101.534 36.1217 102.78C35.6419 104.02 34.6531 104.94 33.1553 105.54C31.6576 106.14 30.3008 106.159 29.0849 105.597C27.8814 105.031 26.9327 103.881 26.2388 102.148L25.079 99.2517ZM32.2632 103.312C32.7088 103.134 33.0529 102.917 33.2954 102.662C33.533 102.394 33.6926 102.093 33.7742 101.759C33.8558 101.425 33.8618 101.063 33.7924 100.675C33.7229 100.286 33.6014 99.875 33.4279 99.4418L32.1492 96.2483C31.9856 95.8398 31.7887 95.4734 31.5583 95.1492C31.3279 94.8249 31.0678 94.57 30.7781 94.3844C30.4883 94.1988 30.1652 94.0912 29.8086 94.0616C29.4471 94.0197 29.056 94.083 28.6351 94.2515C28.2143 94.42 27.8875 94.6442 27.6549 94.9241C27.4173 95.1915 27.2577 95.4924 27.1761 95.8267C27.0945 96.161 27.0823 96.525 27.1394 96.9186C27.1965 97.3123 27.3068 97.7133 27.4704 98.1218L28.7491 101.315C28.9226 101.749 29.1183 102.13 29.3363 102.459C29.5543 102.788 29.8082 103.046 30.0979 103.231C30.3877 103.417 30.7108 103.524 31.0674 103.554C31.419 103.571 31.8176 103.491 32.2632 103.312ZM45.5141 97.0582L41.0952 98.8277L41.5791 101.865L39.0169 102.891L36.9133 88.6531L41.5179 86.8093L49.8228 98.5645L47.2605 99.5905L45.5141 97.0582ZM40.6783 96.2801L44.0389 94.9344L39.8734 88.8897L39.5392 89.0235L40.6783 96.2801ZM60.1887 94.4138L57.7379 95.3951L56.1766 91.4961C56.0577 91.199 55.8806 90.9899 55.6453 90.8686C55.4224 90.7424 55.1315 90.7512 54.7726 90.8949L51.9504 92.025L53.9131 96.9266L51.4623 97.908L46.2581 84.9112L51.234 82.9188C51.9024 82.6511 52.5276 82.5085 53.1094 82.491C53.6912 82.4734 54.2162 82.5649 54.6842 82.7652C55.1596 82.9483 55.5707 83.2217 55.9175 83.5856C56.2766 83.9444 56.5553 84.3714 56.7536 84.8666L56.932 85.3122C57.1451 85.8444 57.2035 86.4027 57.1072 86.9871C57.0059 87.559 56.7077 88.0878 56.2127 88.5732L56.3465 88.9074C56.7996 88.7835 57.2069 88.8143 57.5684 88.9998C57.9424 89.1804 58.2161 89.4874 58.3895 89.9206L60.1887 94.4138ZM51.0136 89.6856L53.3531 88.7488C53.9472 88.5109 54.3445 88.1939 54.5449 87.7976C54.7403 87.389 54.7365 86.931 54.5332 86.4235L54.444 86.2007C54.2706 85.7675 53.9671 85.4581 53.5338 85.2725C53.0955 85.0746 52.5792 85.0946 51.9851 85.3325L49.6457 86.2693L51.0136 89.6856ZM57.1254 80.5597L61.8413 78.6714C63.4505 78.027 64.7961 77.9263 65.8783 78.3691C66.9554 78.7995 67.8088 79.8007 68.4382 81.3727L69.9549 85.1603C70.5843 86.7323 70.6603 88.052 70.1829 89.1193C69.7004 90.1742 68.6547 91.0238 67.0455 91.6682L62.3296 93.5565L61.3854 91.1985L62.6108 90.7079L59.2875 82.4085L58.0621 82.8992L57.1254 80.5597ZM66.1088 89.3287C66.9629 88.9867 67.4777 88.5508 67.6533 88.0209C67.8363 87.4736 67.7568 86.773 67.4148 85.9189L65.9874 82.3541C65.69 81.6114 65.2912 81.1176 64.791 80.8726C64.3031 80.6227 63.6322 80.6688 62.7781 81.0108L61.7384 81.4271L65.069 89.7451L66.1088 89.3287ZM68.9767 75.8142L77.6659 72.3349L78.6027 74.6743L75.4835 75.9233L78.8142 84.2412L81.9334 82.9922L82.8701 85.3316L74.1809 88.811L73.2441 86.4716L76.3633 85.2226L73.0326 76.9046L69.9134 78.1537L68.9767 75.8142ZM91.1672 80.5874L91.5014 80.4536L86.7879 68.6822L89.2387 67.7009L94.4429 80.6977L89.6527 82.6158L83.4167 71.454L83.0825 71.5879L87.796 83.3592L85.3452 84.3406L80.141 71.3438L84.9312 69.4257L91.1672 80.5874ZM97.7767 71.7362L103.347 69.5059L105.979 76.0785L103.751 76.9707L103.171 75.5225L102.836 75.6563C102.881 76.1985 102.76 76.721 102.473 77.2237C102.181 77.714 101.614 78.1277 100.773 78.4648C100.178 78.7027 99.5768 78.8143 98.9677 78.7997C98.3586 78.785 97.7755 78.6379 97.2183 78.3583C96.6562 78.0664 96.1348 77.6432 95.6543 77.0887C95.1688 76.5219 94.7526 75.8053 94.4056 74.9389L93.1864 71.8939C92.8493 71.0522 92.6696 70.2624 92.647 69.5246C92.6319 68.7695 92.7455 68.0848 92.9879 67.4707C93.2427 66.8516 93.6226 66.3117 94.1275 65.851C94.6275 65.3779 95.2364 64.9977 95.9543 64.7102C96.697 64.4128 97.4088 64.2714 98.0897 64.286C98.7656 64.2883 99.3946 64.4242 99.9765 64.6939C100.553 64.9512 101.064 65.3286 101.507 65.8261C101.945 66.3112 102.296 66.8818 102.559 67.5378L102.648 67.7606L100.197 68.742L100.108 68.5191C99.7956 67.7393 99.356 67.2332 98.7889 67.0006C98.2292 66.7508 97.5843 66.7721 96.854 67.0645C96.1608 67.342 95.6856 67.8052 95.4283 68.454C95.1661 69.0904 95.2605 69.9718 95.7115 71.0982L96.8119 73.8461C97.6148 75.8513 98.8332 76.5268 100.467 75.8726C101.197 75.5801 101.671 75.1677 101.889 74.6353C102.114 74.0856 102.095 73.4827 101.833 72.8267L98.7135 74.0757L97.7767 71.7362ZM120.143 64.7192L122.106 69.6208L119.655 70.6022L114.451 57.6054L119.538 55.5683C120.207 55.3007 120.833 55.1791 121.417 55.2037C121.997 55.2158 122.519 55.337 122.985 55.5671C123.458 55.7798 123.866 56.083 124.211 56.4765C124.562 56.8527 124.832 57.276 125.021 57.7464L125.199 58.192C125.392 58.6747 125.497 59.186 125.512 59.7257C125.534 60.2481 125.453 60.7619 125.267 61.2671C125.089 61.7549 124.797 62.2094 124.391 62.6304C123.985 63.0515 123.448 63.3958 122.78 63.6635L120.143 64.7192ZM119.206 62.3797L121.602 61.4207C122.146 61.2026 122.514 60.8831 122.704 60.4621C122.907 60.0362 122.914 59.588 122.726 59.1177L122.637 58.8949C122.448 58.4245 122.134 58.1052 121.693 57.937C121.265 57.7638 120.778 57.7863 120.234 58.0044L117.838 58.9634L119.206 62.3797ZM136.463 60.6405L132.044 62.41L132.528 65.4478L129.965 66.4737L127.862 52.2354L132.466 50.3916L140.771 62.1468L138.209 63.1728L136.463 60.6405ZM131.627 59.8624L134.987 58.5167L130.822 52.472L130.488 52.6058L131.627 59.8624ZM145.352 49.8424C145.144 49.3226 144.758 48.9526 144.196 48.7324C143.647 48.5073 143.007 48.5409 142.276 48.8334C141.657 49.0812 141.22 49.4069 140.966 49.8106C140.706 50.2019 140.663 50.6142 140.836 51.0474C140.925 51.2702 141.05 51.4571 141.211 51.608C141.367 51.7466 141.58 51.8481 141.85 51.9124C142.128 51.9593 142.462 51.9691 142.853 51.9417C143.257 51.9094 143.75 51.8337 144.335 51.7146C145.795 51.417 147.001 51.4153 147.952 51.7096C148.903 52.0039 149.606 52.7204 150.062 53.8592L150.152 54.082C150.394 54.6885 150.504 55.2839 150.479 55.8682C150.462 56.4352 150.319 56.9738 150.049 57.484C149.779 57.9941 149.391 58.4585 148.883 58.8771C148.376 59.2957 147.757 59.6512 147.027 59.9437C146.173 60.2856 145.37 60.4704 144.62 60.4979C143.877 60.5081 143.205 60.3895 142.603 60.1421C141.997 59.8823 141.468 59.5124 141.017 59.0322C140.561 58.5397 140.197 57.953 139.925 57.2722L139.702 56.7152L142.152 55.7339L142.331 56.1795C142.643 56.9593 143.116 57.4951 143.75 57.7871C144.392 58.0617 145.189 58.0081 146.142 57.6265C146.885 57.3291 147.371 56.9476 147.601 56.4821C147.831 56.0165 147.857 55.5609 147.679 55.1153C147.594 54.9049 147.478 54.7217 147.329 54.5658C147.176 54.3975 146.976 54.2762 146.731 54.2021C146.481 54.1155 146.17 54.0748 145.799 54.0798C145.428 54.0849 144.977 54.1433 144.447 54.2549C143.746 54.4062 143.089 54.5042 142.475 54.549C141.856 54.5814 141.283 54.5309 140.756 54.3974C140.24 54.2589 139.782 54.0115 139.381 53.6551C138.98 53.2987 138.65 52.7987 138.393 52.155L138.348 52.0436C138.135 51.5114 138.044 50.9803 138.076 50.4504C138.116 49.9032 138.26 49.3857 138.51 48.8979C138.773 48.4051 139.139 47.9568 139.609 47.553C140.092 47.1443 140.674 46.8037 141.354 46.5311C142.122 46.2238 142.847 46.0626 143.53 46.0475C144.209 46.02 144.82 46.1126 145.365 46.3254C145.922 46.5331 146.397 46.8387 146.788 47.2422C147.192 47.6407 147.5 48.106 147.713 48.6383L147.981 49.3067L145.53 50.288L145.352 49.8424ZM156.72 45.2902C156.512 44.7704 156.127 44.4003 155.565 44.1802C155.015 43.9551 154.375 43.9887 153.645 44.2812C153.026 44.529 152.589 44.8547 152.334 45.2584C152.074 45.6497 152.031 46.0619 152.205 46.4952C152.294 46.718 152.419 46.9049 152.58 47.0558C152.736 47.1944 152.949 47.2959 153.219 47.3601C153.496 47.4071 153.83 47.4169 154.222 47.3895C154.625 47.3572 155.119 47.2815 155.703 47.1624C157.164 46.8648 158.37 46.8631 159.321 47.1574C160.272 47.4517 160.975 48.1682 161.431 49.307L161.52 49.5298C161.763 50.1363 161.872 50.7317 161.848 51.316C161.831 51.883 161.687 52.4216 161.417 52.9317C161.148 53.4419 160.759 53.9063 160.252 54.3249C159.744 54.7435 159.125 55.099 158.395 55.3914C157.541 55.7334 156.739 55.9182 155.989 55.9457C155.246 55.9559 154.574 55.8373 153.972 55.5899C153.365 55.3301 152.837 54.9602 152.386 54.48C151.93 53.9875 151.566 53.4008 151.293 52.72L151.07 52.163L153.521 51.1816L153.699 51.6272C154.012 52.4071 154.485 52.9429 155.119 53.2349C155.76 53.5094 156.557 53.4559 157.51 53.0743C158.253 52.7769 158.739 52.3954 158.97 51.9299C159.2 51.4643 159.226 51.0087 159.047 50.5631C158.963 50.3527 158.846 50.1695 158.698 50.0136C158.544 49.8453 158.345 49.724 158.1 49.6498C157.85 49.5633 157.539 49.5225 157.167 49.5276C156.796 49.5327 156.345 49.5911 155.816 49.7027C155.115 49.854 154.458 49.952 153.844 49.9968C153.225 50.0292 152.652 49.9787 152.124 49.8451C151.609 49.7067 151.151 49.4592 150.75 49.1029C150.348 48.7465 150.019 48.2464 149.761 47.6028L149.717 47.4914C149.503 46.9591 149.413 46.4281 149.445 45.8982C149.484 45.351 149.629 44.8335 149.879 44.3457C150.141 43.8529 150.507 43.4046 150.978 43.0008C151.46 42.5921 152.042 42.2515 152.723 41.9789C153.49 41.6716 154.216 41.5104 154.899 41.4953C155.577 41.4678 156.189 41.5604 156.734 41.7731C157.291 41.9809 157.765 42.2865 158.157 42.69C158.56 43.0884 158.869 43.5538 159.082 44.0861L159.35 44.7545L156.899 45.7358L156.72 45.2902Z" fill="black"/>
<mask id="path-9-inside-2_661_573" fill="white">
<path fill-rule="evenodd" clip-rule="evenodd" d="M142.005 274.149C134.322 287.184 134.882 304.125 144.717 316.812C157.597 333.428 181.508 336.457 198.124 323.576C214.74 310.696 217.769 286.785 204.888 270.169C203.086 267.843 201.067 265.784 198.882 263.997L142.005 274.149Z"/>
</mask>
<path fill-rule="evenodd" clip-rule="evenodd" d="M142.005 274.149C134.322 287.184 134.882 304.125 144.717 316.812C157.597 333.428 181.508 336.457 198.124 323.576C214.74 310.696 217.769 286.785 204.888 270.169C203.086 267.843 201.067 265.784 198.882 263.997L142.005 274.149Z" fill="white"/>
<path d="M144.717 316.813L143.136 318.038L143.136 318.038L144.717 316.813ZM142.005 274.149L141.653 272.18L140.748 272.341L140.282 273.133L142.005 274.149ZM198.124 323.577L199.35 325.157L199.35 325.157L198.124 323.577ZM204.888 270.169L206.469 268.944L204.888 270.169ZM198.882 263.997L200.148 262.449L199.436 261.867L198.53 262.028L198.882 263.997ZM146.298 315.587C136.981 303.569 136.447 287.518 143.728 275.164L140.282 273.133C132.198 286.851 132.783 304.681 143.136 318.038L146.298 315.587ZM196.899 321.996C181.156 334.199 158.501 331.33 146.298 315.587L143.136 318.038C156.693 335.527 181.861 338.714 199.35 325.157L196.899 321.996ZM203.308 271.394C215.511 287.137 212.642 309.792 196.899 321.996L199.35 325.157C216.839 311.6 220.026 286.433 206.469 268.944L203.308 271.394ZM197.616 265.545C199.685 267.237 201.598 269.189 203.308 271.394L206.469 268.944C204.573 266.498 202.449 264.331 200.148 262.449L197.616 265.545ZM198.53 262.028L141.653 272.18L142.356 276.118L199.233 265.966L198.53 262.028Z" fill="black" mask="url(#path-9-inside-2_661_573)"/>
<ellipse cx="161.266" cy="293.918" rx="1.61523" ry="4.50073" transform="rotate(-37.782 161.266 293.918)" fill="black"/>
<ellipse cx="178.595" cy="280.485" rx="1.61523" ry="4.50073" transform="rotate(-37.782 178.595 280.485)" fill="black"/>
<path d="M172.152 307.761C173.332 308.181 175.304 308.572 177.518 308.451C179.74 308.329 182.268 307.688 184.48 305.973C186.692 304.258 187.943 301.97 188.615 299.849C189.283 297.735 189.396 295.728 189.284 294.48L187.292 294.66C187.381 295.651 187.295 297.391 186.708 299.245C186.124 301.091 185.064 302.99 183.254 304.392C181.445 305.795 179.342 306.348 177.409 306.454C175.467 306.56 173.76 306.21 172.822 305.876L172.152 307.761Z" fill="black"/>
<path d="M169.249 308.447C170.699 308.507 173.611 307.055 172.029 303.569" stroke="black" stroke-width="2"/>
<path d="M190.675 291.838C190.372 293.257 188.24 295.715 185.258 293.315" stroke="black" stroke-width="2"/>
<path d="M181.76 277.022C169.427 283.102 155.221 281.838 144.556 274.725L196.56 265.331C192.954 270.111 187.492 274.196 181.76 277.022Z" fill="black" stroke="black" stroke-width="2"/>
</g>
<defs>
<filter id="filter0_d_661_573" x="-758.293" y="14.4624" width="1104.87" height="767.07" filterUnits="userSpaceOnUse" color-interpolation-filters="sRGB">
<feFlood flood-opacity="0" result="BackgroundImageFix"/>
<feColorMatrix in="SourceAlpha" type="matrix" values="0 0 0 0 0 0 0 0 0 0 0 0 0 0 0 0 0 0 127 0" result="hardAlpha"/>
<feOffset dx="10" dy="5"/>
<feComposite in2="hardAlpha" operator="out"/>
<feColorMatrix type="matrix" values="0 0 0 0 0.241667 0 0 0 0 0.241667 0 0 0 0 0.241667 0 0 0 0.5 0"/>
<feBlend mode="normal" in2="BackgroundImageFix" result="effect1_dropShadow_661_573"/>
<feBlend mode="normal" in="SourceGraphic" in2="effect1_dropShadow_661_573" result="shape"/>
</filter>
</defs>
</svg>
