<svg width="39" height="50" viewBox="0 0 39 50" fill="none" xmlns="http://www.w3.org/2000/svg">
<path d="M0.385254 0L12.3798 0C13.7815 0 14.822 0.669409 15.5013 2.00823C16.1806 3.3251 16.5202 5.50892 16.5202 8.2963L16.5202 14.8807C16.5202 17.668 16.1806 19.7311 15.5013 21.07C14.822 22.3868 13.7815 23.0453 12.3798 23.0453L0.385254 23.0453L0.385254 18.8642L2.94224 18.8642L2.94224 4.14815L0.385254 4.14815L0.385254 0ZM12.3798 18.8971C13.1238 18.8971 13.6414 18.546 13.9325 17.8436C14.2344 17.1194 14.3853 16 14.3853 14.4856L14.3853 8.16461C14.3853 6.84774 14.2344 5.84911 13.9325 5.16873C13.6414 4.48834 13.1238 4.14815 12.3798 4.14815L11.4741 4.14815L11.4741 18.8971L12.3798 18.8971Z" fill="black"/>
<path d="M0.385254 26.9547L16.3939 26.9547L16.3939 31.1029L7.41104 31.1029L7.41104 36.3704L16.3269 36.3704L16.3269 40.5185L7.41104 40.5185L7.41104 50L0.385254 50L0.385254 26.9547Z" fill="black"/>
<path d="M23.3536 10.6688L20.1758 10.6688L20.1758 0.128539L23.6563 0.128539C24.5811 0.128539 25.3713 0.242796 26.0271 0.471311C26.6828 0.714107 27.2377 1.04974 27.6917 1.4782C28.1456 1.92095 28.5155 2.44939 28.8014 3.06352C29.104 3.67766 29.3562 4.37034 29.558 5.14158C29.7093 5.71286 29.8775 6.17703 30.0624 6.53409C30.2642 6.90543 30.4828 7.19821 30.7182 7.41244C30.9704 7.62667 31.2394 7.7695 31.5253 7.84091C31.8279 7.9266 32.1642 7.96945 32.5341 7.96945C33.2403 7.96945 33.8288 7.74807 34.2996 7.30533C34.7704 6.87686 35.0057 6.27701 35.0057 5.50577C35.0057 4.69169 34.7115 4.04185 34.123 3.55626C33.5513 3.07066 32.7527 2.82787 31.727 2.82787L30.6173 2.82787L30.6173 -3.30733e-07L32.0297 -2.68996e-07C32.8536 -2.32983e-07 33.6354 0.121398 34.3752 0.364195C35.1319 0.621274 35.7876 0.978328 36.3425 1.43536C36.9141 1.90667 37.3597 2.47796 37.6792 3.14922C38.0155 3.82048 38.1836 4.57743 38.1836 5.42008C38.1836 6.31986 38.0239 7.10538 37.7044 7.77664C37.4017 8.4479 36.9982 9.0049 36.4938 9.44765C35.9894 9.90468 35.4009 10.2403 34.7283 10.4545C34.0726 10.6831 33.3916 10.7973 32.6854 10.7973L32.3828 10.7973C30.9031 10.7973 29.6757 10.4403 28.7005 9.72615C27.7253 9.02633 27.0191 7.87661 26.5819 6.27701C26.397 5.60575 26.2036 5.04874 26.0019 4.606C25.8169 4.17753 25.6067 3.8419 25.3713 3.5991C25.1359 3.35631 24.8753 3.18492 24.5895 3.08495C24.3205 2.99925 24.0094 2.95641 23.6563 2.95641L23.3536 2.95641L23.3536 10.6688Z" fill="black"/>
<path d="M29.0032 16.6095C29.5748 16.6095 30.0708 16.7881 30.4912 17.1451C30.9115 17.5022 31.1217 17.9235 31.1217 18.4091C31.1217 18.8947 30.9115 19.316 30.4912 19.6731C30.0708 20.0301 29.5748 20.2086 29.0032 20.2086C28.4315 20.2086 27.9355 20.0301 27.5151 19.6731C27.0948 19.316 26.8846 18.8947 26.8846 18.4091C26.8846 17.9235 27.0948 17.5022 27.5151 17.1451C27.9355 16.7881 28.4315 16.6095 29.0032 16.6095ZM30.9704 12.8819C33.2571 12.8819 35.031 13.3675 36.292 14.3387C37.5531 15.3241 38.1836 16.681 38.1836 18.4091C38.1836 20.1372 37.5531 21.4869 36.292 22.4581C35.031 23.4436 33.2571 23.9363 30.9704 23.9363L27.0359 23.9363C24.682 23.9363 22.8913 23.4436 21.6638 22.4581C20.4364 21.4869 19.8227 20.1372 19.8227 18.4091C19.8227 16.6809 20.4364 15.3241 21.6638 14.3387C22.8913 13.3675 24.682 12.8819 27.0359 12.8819L30.9704 12.8819ZM22.8492 18.4091C22.8492 18.9232 22.9417 19.3517 23.1267 19.6945C23.3284 20.0373 23.6059 20.3158 23.959 20.53C24.312 20.7442 24.7324 20.8942 25.22 20.9799C25.7076 21.0656 26.2457 21.1084 26.8341 21.1084L31.1722 21.1084C31.727 21.1084 32.2483 21.0584 32.7359 20.9585C33.2235 20.8585 33.6438 20.7014 33.9969 20.4871C34.35 20.2729 34.6274 19.9944 34.8292 19.6516C35.0478 19.3089 35.1571 18.8947 35.1571 18.4091C35.1571 17.9235 35.0478 17.5093 34.8292 17.1665C34.6274 16.8238 34.35 16.5453 33.9969 16.331C33.6438 16.1168 33.2235 15.9597 32.7359 15.8597C32.2483 15.7598 31.727 15.7098 31.1722 15.7098L26.8341 15.7098C26.2457 15.7098 25.7076 15.7526 25.22 15.8383C24.7324 15.924 24.312 16.074 23.959 16.2882C23.6059 16.5024 23.3284 16.7809 23.1267 17.1237C22.9417 17.4665 22.8492 17.8949 22.8492 18.4091Z" fill="black"/>
<path d="M23.3536 36.9039L20.1758 36.9039L20.1758 26.3636L23.6563 26.3636C24.5811 26.3636 25.3713 26.4779 26.0271 26.7064C26.6828 26.9492 27.2377 27.2848 27.6917 27.7133C28.1456 28.1561 28.5155 28.6845 28.8014 29.2986C29.104 29.9128 29.3562 30.6054 29.558 31.3767C29.7093 31.948 29.8775 32.4121 30.0624 32.7692C30.2642 33.1405 30.4828 33.4333 30.7182 33.6475C30.9704 33.8618 31.2394 34.0046 31.5252 34.076C31.8279 34.1617 32.1642 34.2045 32.5341 34.2045C33.2403 34.2045 33.8288 33.9832 34.2996 33.5404C34.7703 33.112 35.0057 32.5121 35.0057 31.7409C35.0057 30.9268 34.7115 30.277 34.123 29.7914C33.5513 29.3058 32.7527 29.063 31.727 29.063L30.6173 29.063L30.6173 26.2351L32.0297 26.2351C32.8536 26.2351 33.6354 26.3565 34.3752 26.5993C35.1319 26.8564 35.7876 27.2134 36.3425 27.6705C36.9141 28.1418 37.3597 28.7131 37.6792 29.3843C38.0155 30.0556 38.1836 30.8125 38.1836 31.6552C38.1836 32.555 38.0239 33.3405 37.7044 34.0117C37.4017 34.683 36.9982 35.24 36.4938 35.6828C35.9894 36.1398 35.4009 36.4754 34.7283 36.6896C34.0726 36.9182 33.3916 37.0324 32.6854 37.0324L32.3828 37.0324C30.9031 37.0324 29.6757 36.6754 28.7005 35.9613C27.7253 35.2614 27.0191 34.1117 26.5819 32.5121C26.397 31.8408 26.2036 31.2838 26.0019 30.8411C25.8169 30.4126 25.6067 30.077 25.3713 29.8342C25.1359 29.5914 24.8753 29.42 24.5895 29.32C24.3205 29.2344 24.0094 29.1915 23.6563 29.1915L23.3536 29.1915L23.3536 36.9039Z" fill="black"/>
<path d="M27.7421 43.1874L32.9881 43.1874L34.1987 46.9151L34.6527 46.9151L34.6527 39.4598L37.8305 39.4598L37.8305 49.2288L32.2819 49.2288L30.9199 45.244L30.466 45.244L30.466 45.7582C30.466 46.2866 30.3651 46.8079 30.1633 47.3221C29.9784 47.8363 29.6841 48.2861 29.2806 48.6718C28.877 49.0717 28.3726 49.393 27.7673 49.6358C27.1788 49.8786 26.481 50 25.674 50L25.3713 50C24.5811 50 23.8497 49.8857 23.1771 49.6572C22.5045 49.443 21.916 49.1145 21.4116 48.6718C20.924 48.2433 20.5373 47.7077 20.2515 47.065C19.9656 46.4223 19.8227 45.6868 19.8227 44.8584C19.8227 44.0158 19.9824 43.2517 20.3019 42.5661C20.6214 41.8806 21.0585 41.295 21.6134 40.8094C22.1683 40.3381 22.8072 39.9739 23.5302 39.7168C24.2532 39.4598 25.0182 39.3312 25.8253 39.3312L26.8846 39.3312L26.8846 42.1591L25.9766 42.1591C25.1696 42.1591 24.4718 42.3805 23.8833 42.8232C23.2948 43.266 23.0006 43.9301 23.0006 44.8156C23.0006 45.5725 23.2275 46.151 23.6815 46.5509C24.1355 46.965 24.7324 47.1721 25.4722 47.1721C26.2625 47.1721 26.8341 46.9508 27.1872 46.508C27.5571 46.0796 27.7421 45.5297 27.7421 44.8584L27.7421 43.1874Z" fill="black"/>
</svg>
